<?xml version="1.0" encoding="UTF-8" standalone="no"?>
<svg
   version="1.1"
   width="32"
   height="32"
   viewBox="0 0 32 32"
   id="svg16"
   sodipodi:docname="apple-music-seeklogo.com.svg"
   inkscape:version="1.2.2 (732a01da63, 2022-12-09)"
   xmlns:inkscape="http://www.inkscape.org/namespaces/inkscape"
   xmlns:sodipodi="http://sodipodi.sourceforge.net/DTD/sodipodi-0.dtd"
   xmlns="http://www.w3.org/2000/svg"
   xmlns:svg="http://www.w3.org/2000/svg">
  <defs
     id="defs20" />
  <sodipodi:namedview
     id="namedview18"
     pagecolor="#ffffff"
     bordercolor="#000000"
     borderopacity="0.25"
     inkscape:showpageshadow="2"
     inkscape:pageopacity="0.0"
     inkscape:pagecheckerboard="0"
     inkscape:deskcolor="#d1d1d1"
     showgrid="false"
     inkscape:zoom="12.953125"
     inkscape:cx="-3.1266586"
     inkscape:cy="18.296743"
     inkscape:window-width="1920"
     inkscape:window-height="1009"
     inkscape:window-x="-8"
     inkscape:window-y="-8"
     inkscape:window-maximized="1"
     inkscape:current-layer="svg16" />
  <title
     id="title12">apple-music</title>
  <path
     id="rect402"
     style="fill:#fbfefe;stroke-width:12.5934;stroke-linecap:round"
     d="M 22.673828 4.8984375 C 22.377828 4.9194375 22.081062 4.9820626 21.789062 5.0390625 C 20.893063 5.2160623 20.003421 5.3991721 19.107422 5.5761719 L 16.080078 6.1914062 C 15.101079 6.3844061 14.127437 6.5812971 13.148438 6.7792969 C 12.805438 6.8522968 12.456187 6.9149063 12.117188 7.0039062 C 11.753188 7.0929062 11.482672 7.3114066 11.388672 7.6914062 C 11.352672 7.8534061 11.332031 8.0205002 11.332031 8.1875 L 11.332031 20.03125 L 11.332031 20.228516 C 11.306031 20.749515 11.039296 21.072641 10.529297 21.181641 C 10.149297 21.259641 9.7647652 21.338016 9.3847656 21.416016 C 8.8797661 21.520016 8.3832964 21.628172 7.9042969 21.826172 C 6.6752981 22.347171 6.1811408 23.514657 6.3691406 24.597656 C 6.5871404 25.852655 7.6497825 26.701297 8.9257812 26.654297 C 9.4157808 26.639297 9.8942817 26.560781 10.363281 26.425781 C 11.24828 26.170782 11.905391 25.633296 12.275391 24.779297 C 12.49839 24.259297 12.560547 23.707531 12.560547 23.144531 C 12.565547 19.676535 12.561406 16.207278 12.566406 12.738281 C 12.566406 12.681281 12.561406 12.623406 12.566406 12.566406 C 12.582406 12.181407 12.712032 12.014156 13.082031 11.910156 C 13.103031 11.910156 13.129391 11.899531 13.150391 11.894531 L 18.082031 10.900391 C 19.09303 10.692391 20.107048 10.489015 21.123047 10.291016 C 21.331047 10.249016 21.539906 10.211172 21.753906 10.201172 C 21.961906 10.191172 22.108156 10.312625 22.160156 10.515625 C 22.180156 10.593625 22.195312 10.676766 22.195312 10.759766 L 22.195312 18.019531 C 22.195312 18.102531 22.190922 18.192391 22.169922 18.275391 C 22.096922 18.65639 21.858281 18.879891 21.488281 18.962891 C 20.988282 19.077891 20.483515 19.176156 19.978516 19.285156 C 19.515516 19.379156 19.050046 19.504891 18.623047 19.712891 C 17.540048 20.24389 17.045281 21.379157 17.238281 22.410156 C 17.462281 23.660155 18.562126 24.520031 19.828125 24.457031 C 20.312125 24.436031 20.79186 24.363515 21.255859 24.228516 C 22.094859 23.988516 22.718516 23.49303 23.103516 22.707031 C 23.353515 22.202032 23.431641 21.656609 23.431641 21.099609 L 23.431641 13.484375 L 23.429688 13.478516 L 23.429688 5.8378906 C 23.429687 5.7388907 23.424062 5.6380624 23.414062 5.5390625 C 23.372063 5.1220629 23.084828 4.8624375 22.673828 4.8984375 z "
     inkscape:label="rect402" />
</svg>
