<?xml version="1.0" encoding="UTF-8" standalone="no"?>
<svg
   width="24"
   height="24"
   viewBox="0 0 24 24"
   version="1.1"
   id="svg142"
   sodipodi:docname="Behance Logo.svg"
   inkscape:version="1.2.2 (732a01da63, 2022-12-09)"
   xmlns:inkscape="http://www.inkscape.org/namespaces/inkscape"
   xmlns:sodipodi="http://sodipodi.sourceforge.net/DTD/sodipodi-0.dtd"
   xmlns="http://www.w3.org/2000/svg"
   xmlns:svg="http://www.w3.org/2000/svg">
  <defs
     id="defs146" />
  <sodipodi:namedview
     id="namedview144"
     pagecolor="#ffffff"
     bordercolor="#000000"
     borderopacity="0.25"
     inkscape:showpageshadow="2"
     inkscape:pageopacity="0.0"
     inkscape:pagecheckerboard="0"
     inkscape:deskcolor="#d1d1d1"
     showgrid="false"
     inkscape:zoom="23.747003"
     inkscape:cx="6.0849785"
     inkscape:cy="11.496188"
     inkscape:window-width="1920"
     inkscape:window-height="1009"
     inkscape:window-x="-8"
     inkscape:window-y="-8"
     inkscape:window-maximized="1"
     inkscape:current-layer="svg142" />
  <path
     d="M 21.582414,7.2412559 H 14.889467 V 5.3289854 h 6.692947 z m 1.65029,9.5613531 c -0.422612,1.240107 -1.939999,2.868406 -4.877247,2.868406 -2.939159,0 -5.319936,-1.653158 -5.319936,-5.426068 0,-3.738489 2.223014,-5.660321 5.226235,-5.660321 2.946809,0 4.746256,1.703833 5.139227,4.231855 0.07458,0.483804 0.104219,1.135888 0.09083,2.046129 h -7.674898 c 0.124298,3.070151 3.330219,3.166721 4.386749,1.939999 z m -7.348856,-3.824542 h 4.747211 c -0.100394,-1.47914 -1.086169,-2.121663 -2.368347,-2.121663 -1.401694,0 -2.17712,0.734311 -2.378864,2.121663 z M 6.7298083,19.659541 H 0.54743751 V 5.3490642 H 7.1954462 c 5.2357968,0.077447 5.3352348,5.2052008 2.600688,6.6030708 3.3091848,1.20473 3.4200958,7.707406 -3.0663259,7.707406 z M 3.4158434,11.065797 h 3.4267889 c 2.3979873,0 2.7785291,-2.8684058 -0.2983142,-2.8684058 H 3.4158434 Z m 3.2422547,2.868406 H 3.4158434 v 2.883704 h 3.194448 c 2.9209932,0 2.7421959,-2.883704 0.047807,-2.883704 z"
     id="path140"
     style="stroke-width:0.956135;fill:#ffffff;fill-opacity:1" />
</svg>
