<?xml version="1.0" encoding="UTF-8" standalone="no"?>
<!-- Created with Inkscape (http://www.inkscape.org/) -->

<svg
   width="35"
   height="35"
   viewBox="0 0 9.2604165 9.2604166"
   version="1.1"
   id="svg248"
   inkscape:version="1.2.2 (732a01da63, 2022-12-09)"
   sodipodi:docname="Discord Logo.svg"
   xmlns:inkscape="http://www.inkscape.org/namespaces/inkscape"
   xmlns:sodipodi="http://sodipodi.sourceforge.net/DTD/sodipodi-0.dtd"
   xmlns="http://www.w3.org/2000/svg"
   xmlns:svg="http://www.w3.org/2000/svg">
  <sodipodi:namedview
     id="namedview250"
     pagecolor="#ffffff"
     bordercolor="#000000"
     borderopacity="0.25"
     inkscape:showpageshadow="2"
     inkscape:pageopacity="0.0"
     inkscape:pagecheckerboard="0"
     inkscape:deskcolor="#d1d1d1"
     inkscape:document-units="px"
     showgrid="false"
     inkscape:zoom="11.816274"
     inkscape:cx="16.629608"
     inkscape:cy="13.625277"
     inkscape:window-width="1920"
     inkscape:window-height="1009"
     inkscape:window-x="-8"
     inkscape:window-y="-8"
     inkscape:window-maximized="1"
     inkscape:current-layer="layer1" />
  <defs
     id="defs245" />
  <g
     inkscape:label="Layer 1"
     inkscape:groupmode="layer"
     id="layer1">
    <path
       d="M 7.7636626,1.8586423 A 7.4801279,7.4801279 0 0 0 5.8977207,1.284562 5.1261819,5.1261819 0 0 0 5.6586982,1.7704319 a 6.9487294,6.9487294 0 0 0 -2.070818,0 A 5.1482345,5.1482345 0 0 0 3.3488576,1.284562 7.5327699,7.5327699 0 0 0 1.4814928,1.8600653 C 0.30060788,3.6072073 -0.01951206,5.3109545 0.14054791,6.9905158 v 0 A 7.5213876,7.5213876 0 0 0 2.429047,8.1393892 5.5273985,5.5273985 0 0 0 2.9191857,7.3490491 4.8672406,4.8672406 0 0 1 2.1473423,6.980556 C 2.2120793,6.933603 2.2753898,6.885232 2.3365686,6.8382807 a 5.3758751,5.3758751 0 0 0 4.575576,0 c 0.061892,0.050508 0.1252017,0.098882 0.1892256,0.1422753 A 4.8857365,4.8857365 0 0 1 6.3281038,7.349761 5.477602,5.477602 0 0 0 6.8182425,8.1393892 7.4872416,7.4872416 0 0 0 9.108164,6.9912269 v 0 C 9.2959684,5.0434773 8.787333,3.3553801 7.7636626,1.8586423 Z M 3.121928,5.9575962 c -0.4460327,0 -0.8145259,-0.4047734 -0.8145259,-0.902737 0,-0.4979638 0.3556885,-0.906294 0.8131038,-0.906294 0.4574154,0 0.8230626,0.4083302 0.8152377,0.906294 -0.0078,0.4979636 -0.3592453,0.902737 -0.8138156,0.902737 z m 3.0048564,0 c -0.4467447,0 -0.8138157,-0.4047734 -0.8138157,-0.902737 0,-0.4979638 0.3556893,-0.906294 0.8138157,-0.906294 0.4581264,0 0.8209286,0.4083302 0.8131037,0.906294 -0.0078,0.4979636 -0.3585342,0.902737 -0.8131037,0.902737 z"
       id="path461"
       inkscape:label="path461"
       style="fill:#ffffff;stroke-width:0.0711375" />
  </g>
</svg>
