<?xml version="1.0" encoding="UTF-8" standalone="no"?>
<!-- Created with Inkscape (http://www.inkscape.org/) -->

<svg
   width="35"
   height="35"
   viewBox="0 0 9.2604165 9.2604166"
   version="1.1"
   id="svg248"
   inkscape:version="1.2.2 (732a01da63, 2022-12-09)"
   sodipodi:docname="Instagram Logo.svg"
   xmlns:inkscape="http://www.inkscape.org/namespaces/inkscape"
   xmlns:sodipodi="http://sodipodi.sourceforge.net/DTD/sodipodi-0.dtd"
   xmlns="http://www.w3.org/2000/svg"
   xmlns:svg="http://www.w3.org/2000/svg">
  <sodipodi:namedview
     id="namedview250"
     pagecolor="#ffffff"
     bordercolor="#000000"
     borderopacity="0.25"
     inkscape:showpageshadow="2"
     inkscape:pageopacity="0.0"
     inkscape:pagecheckerboard="0"
     inkscape:deskcolor="#d1d1d1"
     inkscape:document-units="px"
     showgrid="false"
     inkscape:zoom="16.710735"
     inkscape:cx="14.272263"
     inkscape:cy="18.431266"
     inkscape:window-width="1920"
     inkscape:window-height="1009"
     inkscape:window-x="-8"
     inkscape:window-y="-8"
     inkscape:window-maximized="1"
     inkscape:current-layer="layer1" />
  <defs
     id="defs245" />
  <g
     inkscape:label="Layer 1"
     inkscape:groupmode="layer"
     id="layer1">
    <path
       d="m 2.9106107,0.47066294 h 3.4940975 c 1.3311005,0 2.4125737,1.08150766 2.4125737,2.41259416 v 3.4940921 c 0,0.6398683 -0.2541712,1.2535323 -0.7066058,1.7059679 C 7.6582405,8.5357517 7.0445765,8.7899229 6.4047082,8.7899229 H 2.9106107 c -1.3310865,0 -2.41258874,-1.0814732 -2.41258874,-2.4125737 V 2.8832571 c 0,-0.6398597 0.25417985,-1.253513 0.70663044,-1.7059583 C 1.6570988,0.72484817 2.2707521,0.47066294 2.9106107,0.47066294 Z M 2.827412,1.3025917 c -0.3971538,0 -0.7780401,0.1577688 -1.0588717,0.4385993 C 1.4877109,2.0220215 1.3299421,2.4029078 1.3299421,2.8000627 v 3.6604959 c 0,0.8277506 0.6697032,1.4974699 1.4974699,1.4974699 h 3.6605013 c 0.3971291,0 0.7780347,-0.1577838 1.058861,-0.4386089 C 7.8275994,7.2385933 7.9853832,6.8576877 7.9853832,6.4605586 V 2.8000627 c 0,-0.8277667 -0.6697193,-1.497471 -1.4974699,-1.497471 z m 4.0140538,0.6239461 c 0.1379168,0 0.270143,0.054777 0.3676782,0.1522931 0.097485,0.097506 0.1522932,0.2297614 0.1522932,0.3676642 0,0.1379018 -0.05481,0.2701527 -0.1522932,0.3676632 -0.097539,0.097506 -0.2297614,0.1522931 -0.3676782,0.1522931 -0.1379168,0 -0.270144,-0.054777 -0.3676792,-0.1522931 -0.097485,-0.097506 -0.1522922,-0.2297614 -0.1522922,-0.3676632 0,-0.1379028 0.05481,-0.2701537 0.1522922,-0.3676642 C 6.571325,1.9813248 6.703549,1.9265378 6.8414658,1.9265378 Z m -2.1838107,0.623946 c 0.5516179,0 1.0806245,0.2191254 1.4706654,0.6091663 0.3900409,0.3900409 0.6091706,0.9190519 0.6091706,1.4706503 0,0.5516179 -0.2191297,1.0806245 -0.6091706,1.4706654 C 5.7382796,6.4910067 5.209273,6.7101364 4.6576551,6.7101364 4.1060523,6.7101364 3.5770404,6.4910067 3.1869994,6.1009658 2.7969585,5.7109249 2.5778331,5.1819183 2.5778331,4.6303004 2.5778331,4.078702 2.7969585,3.549691 3.1869994,3.1596501 3.5770404,2.7696092 4.1060523,2.5504838 4.6576551,2.5504838 Z m 0,0.8319299 c -0.3309606,0 -0.6483699,0.1314731 -0.8823945,0.3654976 C 3.5412361,3.9819359 3.409763,4.2993441 3.409763,4.6303004 c 0,0.3309908 0.1314731,0.6483549 0.3654976,0.8824096 0.2340246,0.2340041 0.5514339,0.3654815 0.8823945,0.3654815 0.3309413,0 0.6483549,-0.1314774 0.8824096,-0.3654815 C 5.7740688,5.2786553 5.9055462,4.9612912 5.9055462,4.6303004 5.9055462,4.2993441 5.7740688,3.9819359 5.5400647,3.7479113 5.30601,3.5138868 4.9885964,3.3824137 4.6576551,3.3824137 Z"
       id="path686"
       style="fill:#ffffff;stroke-width:0.0499156" />
  </g>
</svg>
