<?xml version="1.0" encoding="UTF-8" standalone="no"?>
<!-- Created with Inkscape (http://www.inkscape.org/) -->

<svg
   width="35"
   height="35"
   viewBox="0 0 9.2604165 9.2604166"
   version="1.1"
   id="svg248"
   inkscape:version="1.2.2 (732a01da63, 2022-12-09)"
   sodipodi:docname="Soundcloud Logo.svg"
   xmlns:inkscape="http://www.inkscape.org/namespaces/inkscape"
   xmlns:sodipodi="http://sodipodi.sourceforge.net/DTD/sodipodi-0.dtd"
   xmlns="http://www.w3.org/2000/svg"
   xmlns:svg="http://www.w3.org/2000/svg">
  <sodipodi:namedview
     id="namedview250"
     pagecolor="#ffffff"
     bordercolor="#000000"
     borderopacity="0.25"
     inkscape:showpageshadow="2"
     inkscape:pageopacity="0.0"
     inkscape:pagecheckerboard="0"
     inkscape:deskcolor="#d1d1d1"
     inkscape:document-units="px"
     showgrid="false"
     inkscape:zoom="11.816274"
     inkscape:cx="-4.1045088"
     inkscape:cy="16.92581"
     inkscape:window-width="1920"
     inkscape:window-height="1009"
     inkscape:window-x="-8"
     inkscape:window-y="-8"
     inkscape:window-maximized="1"
     inkscape:current-layer="layer1" />
  <defs
     id="defs245" />
  <g
     inkscape:label="Layer 1"
     inkscape:groupmode="layer"
     id="layer1">
    <path
       d="M 4.4616703,3.2335323 V 6.5656756 H 8.0520304 C 8.810288,6.5124103 9.1504883,6.0451696 9.1504883,5.471349 c 0,-0.6065766 -0.4590762,-1.0943069 -1.0738662,-1.0943069 -0.1557141,0 -0.2868859,0.032791 -0.4221397,0.090173 C 7.5561154,3.5081421 6.7405107,2.758098 5.7363369,2.758098 c -0.4795363,0 -0.9344811,0.1803352 -1.2746666,0.4754343 z M 4.100995,3.6515896 C 3.9780369,3.5778149 3.84688,3.5204377 3.7034323,3.4917442 V 6.5656756 H 4.2731362 V 3.4261682 C 4.2116572,3.4917442 4.1542752,3.5737179 4.100995,3.6515896 Z M 3.1378253,3.4302652 v 3.1354104 h 0.377068 V 3.442561 C 3.4370221,3.4302653 3.3591497,3.426168 3.2771761,3.426168 c -0.049183,0 -0.094269,0 -0.1393508,0.0041 z M 2.3877812,3.6966759 V 6.5656756 H 2.7607523 V 3.5081419 C 2.6254984,3.5532232 2.4984434,3.6188041 2.3877812,3.6966759 Z M 1.7033131,4.721305 c -0.024591,0 -0.049184,-0.024591 -0.077872,-0.036887 V 6.5656756 H 2.0025094 V 4.0491573 C 1.8508628,4.2458902 1.7483994,4.4795104 1.7033131,4.721305 Z M 0.86719839,4.6065605 v 1.9222278 c 0.0860706,0.024591 0.18443711,0.036887 0.29100251,0.036887 h 0.090168 v -1.99192 c -0.032791,-0.00408 -0.065576,-0.00817 -0.090168,-0.00817 -0.1065654,0 -0.20493185,0.016378 -0.29100251,0.04097 z M 0.13354916,5.5656333 c 0,0.3073951 0.1393538,0.5779026 0.35657625,0.7623399 V 4.8073756 C 0.27290296,4.9877304 0.13354916,5.2623204 0.13354916,5.5656333 Z"
       id="path846"
       style="fill:#ffffff;stroke-width:0.0491832" />
  </g>
</svg>
