<?xml version="1.0" encoding="UTF-8" standalone="no"?>
<!-- Created with Inkscape (http://www.inkscape.org/) -->

<svg
   width="35"
   height="35"
   viewBox="0 0 9.2604165 9.2604166"
   version="1.1"
   id="svg248"
   inkscape:version="1.2.2 (732a01da63, 2022-12-09)"
   sodipodi:docname="Spotify Logo.svg"
   xmlns:inkscape="http://www.inkscape.org/namespaces/inkscape"
   xmlns:sodipodi="http://sodipodi.sourceforge.net/DTD/sodipodi-0.dtd"
   xmlns="http://www.w3.org/2000/svg"
   xmlns:svg="http://www.w3.org/2000/svg">
  <sodipodi:namedview
     id="namedview250"
     pagecolor="#ffffff"
     bordercolor="#000000"
     borderopacity="0.25"
     inkscape:showpageshadow="2"
     inkscape:pageopacity="0.0"
     inkscape:pagecheckerboard="0"
     inkscape:deskcolor="#d1d1d1"
     inkscape:document-units="px"
     showgrid="false"
     inkscape:zoom="11.816274"
     inkscape:cx="15.783317"
     inkscape:cy="15.99489"
     inkscape:window-width="1920"
     inkscape:window-height="1009"
     inkscape:window-x="-8"
     inkscape:window-y="-8"
     inkscape:window-maximized="1"
     inkscape:current-layer="layer1" />
  <defs
     id="defs245" />
  <g
     inkscape:label="Layer 1"
     inkscape:groupmode="layer"
     id="layer1">
    <path
       d="M 7.1145845,4.1727519 C 5.7697363,3.37426 3.5213481,3.2902064 2.239554,3.6894549 2.0294225,3.7524939 1.819296,3.6264159 1.7562569,3.437299 1.693218,3.2271674 1.819296,3.0170408 2.0084129,2.9540019 3.5003335,2.5127292 5.9588531,2.5967778 7.5137975,3.5213526 7.7029146,3.6264159 7.7659534,3.8785718 7.6609054,4.0676886 7.5558572,4.2147762 7.3037013,4.2778152 7.1145845,4.1727519 Z m -0.04206,1.1767409 C 6.9674767,5.4965501 6.7783599,5.5595891 6.631252,5.4545409 5.4965506,4.7611123 3.7735039,4.5509857 2.4496857,4.971259 2.2815783,5.0132681 2.0924615,4.9291993 2.0504372,4.7611123 2.0084129,4.5930151 2.0924615,4.4038981 2.2605688,4.3618688 3.7945135,3.8995865 5.6856676,4.1307276 6.9885063,4.9291993 7.1145845,4.9922383 7.1776234,5.202385 7.0725248,5.3494928 Z M 6.568213,6.5051737 C 6.4841947,6.6312515 6.3370869,6.673311 6.211009,6.5892423 5.2234153,5.9798825 3.9836305,5.8538045 2.5127245,6.1899788 2.365632,6.2320383 2.239554,6.1269398 2.1975298,6.0008618 2.1555005,5.8538045 2.2605688,5.7277266 2.3866466,5.685667 3.9836305,5.328463 5.3704726,5.4755707 6.463165,6.1479696 6.6102726,6.2110086 6.631252,6.3790956 6.568213,6.5051737 Z M 4.6350349,0.43243809 c -0.5518936,0 -1.0983809,0.10870431 -1.6082654,0.31990517 C 2.5168851,0.96354388 2.0535942,1.2731056 1.6633476,1.6633521 0.87520918,2.4514955 0.43243866,3.5204398 0.43243866,4.6350344 c 0,1.1145793 0.44277052,2.1835689 1.23090894,2.9717072 0.3902466,0.3902365 0.8535375,0.6997832 1.3634219,0.9109889 0.5098845,0.2112058 1.0563718,0.319885 1.6082654,0.319885 1.1145793,0 2.1835689,-0.4427353 2.9717072,-1.2308739 C 8.3948807,6.8186033 8.837616,5.7496137 8.837616,4.6350344 8.837616,4.0831458 8.7289372,3.5366585 8.517731,3.026774 8.3065253,2.5168897 7.9969786,2.0535987 7.6067421,1.6633521 7.2164553,1.2731056 6.7531945,0.96354388 6.2432849,0.75234326 5.7334258,0.54114246 5.1869032,0.43243809 4.6350349,0.43243809 Z"
       id="path1006"
       style="fill:#ffffff;stroke-width:0.0504312" />
  </g>
</svg>
