<?xml version="1.0" encoding="UTF-8" standalone="no"?>
<!-- Created with Inkscape (http://www.inkscape.org/) -->

<svg
   width="35"
   height="35"
   viewBox="0 0 9.2604165 9.2604166"
   version="1.1"
   id="svg248"
   inkscape:version="1.2.2 (732a01da63, 2022-12-09)"
   sodipodi:docname="Threads Logo.svg"
   xmlns:inkscape="http://www.inkscape.org/namespaces/inkscape"
   xmlns:sodipodi="http://sodipodi.sourceforge.net/DTD/sodipodi-0.dtd"
   xmlns="http://www.w3.org/2000/svg"
   xmlns:svg="http://www.w3.org/2000/svg">
  <sodipodi:namedview
     id="namedview250"
     pagecolor="#ffffff"
     bordercolor="#000000"
     borderopacity="0.25"
     inkscape:showpageshadow="2"
     inkscape:pageopacity="0.0"
     inkscape:pagecheckerboard="0"
     inkscape:deskcolor="#d1d1d1"
     inkscape:document-units="px"
     showgrid="false"
     inkscape:zoom="16.710735"
     inkscape:cx="15.289573"
     inkscape:cy="15.678545"
     inkscape:window-width="1920"
     inkscape:window-height="1009"
     inkscape:window-x="-8"
     inkscape:window-y="-8"
     inkscape:window-maximized="1"
     inkscape:current-layer="layer1" />
  <defs
     id="defs245" />
  <g
     inkscape:label="Layer 1"
     inkscape:groupmode="layer"
     id="layer1">
    <path
       d="m 6.7666887,4.2805421 c -0.03826,-0.01834 -0.07713,-0.035991 -0.1165,-0.052892 -0.06857,-1.2634037 -0.7589146,-1.9867023 -1.9180884,-1.994105 -0.00525,-3.24e-5 -0.010475,-3.24e-5 -0.015726,-3.24e-5 -0.6933362,0 -1.2699736,0.2959504 -1.6248911,0.8344871 l 0.6375105,0.4373184 c 0.2651367,-0.402267 0.6812421,-0.4880225 0.9876858,-0.4880225 0.00354,0 0.00709,0 0.010595,3.23e-5 C 5.108948,3.019758 5.396959,3.1307327 5.5833682,3.3471412 5.7190225,3.5046936 5.8097518,3.7224114 5.8546768,3.9971809 5.5162815,3.9396666 5.1503109,3.9219834 4.7590784,3.9444136 3.6569887,4.0078963 2.9484769,4.6506582 2.9960623,5.5437978 3.020209,5.9968426 3.2459079,6.3865944 3.6315558,6.6412008 3.9576166,6.856434 4.3775622,6.961691 4.8140111,6.9378637 5.3903893,6.9062635 5.842555,6.6863572 6.1580023,6.2842521 6.397572,5.978891 6.5490958,5.5831708 6.6159977,5.0845532 c 0.274686,0.1657741 0.47826,0.3839222 0.590689,0.6461625 0.191174,0.445781 0.202324,1.1783238 -0.395397,1.7755359 C 6.2875957,8.0294369 5.6580893,8.2557743 4.7067275,8.2627606 3.6514135,8.2549423 2.8532922,7.9164997 2.3343773,7.2568271 1.8484552,6.6391186 1.5973281,5.7469091 1.5879591,4.6049512 1.5973281,3.462984 1.8484552,2.5707652 2.3343773,1.9530615 2.8532922,1.2933981 3.6513996,0.95496095 4.7067137,0.9471187 c 1.0629712,0.007902 1.875,0.3479683 2.413778,1.0108145 0.264183,0.3250523 0.463362,0.733829 0.594667,1.2104468 L 8.4622297,2.9690579 C 8.3030717,2.3823944 8.0526287,1.8768599 7.7118277,1.4576038 7.0211097,0.607806 6.0109201,0.17236433 4.7093185,0.16333543 h -0.00521 C 3.4051537,0.17233233 2.4062759,0.60943104 1.7352311,1.4624757 1.1380928,2.2215802 0.83007139,3.2778196 0.81972139,4.6018282 l -3.23e-5,0.00312 3.23e-5,0.00312 c 0.01035,1.3239947 0.31837141,2.3802664 0.91550971,3.1393664 0.6710448,0.8530216 1.6699226,1.2901505 2.9688778,1.2991263 h 0.00521 C 5.8641618,9.0385628 6.6781807,8.736209 7.3487717,8.0662191 8.2261297,7.189694 8.1997117,6.0909956 7.9105437,5.4165177 7.7030837,4.9328442 7.3075477,4.5400018 6.7666887,4.2805421 Z M 4.7727503,6.1552139 C 4.2897246,6.1824188 3.7879099,5.9656125 3.7631664,5.5012323 3.7448262,5.1569145 4.0082048,4.7727147 4.8023935,4.7269476 c 0.090951,-0.00525 0.1802,-0.00781 0.2678756,-0.00781 0.2884737,0 0.5583482,0.028024 0.8037011,0.081661 -0.091516,1.1428833 -0.6283035,1.3284596 -1.1012199,1.3544153 z"
       id="path1166"
       style="fill:#ffffff;stroke-width:0.0462668" />
  </g>
</svg>
