<?xml version="1.0" encoding="UTF-8" standalone="no"?>
<!-- Created with Inkscape (http://www.inkscape.org/) -->

<svg
   width="35"
   height="35"
   viewBox="0 0 9.2604165 9.2604166"
   version="1.1"
   id="svg248"
   inkscape:version="1.2.2 (732a01da63, 2022-12-09)"
   sodipodi:docname="TikTok Logo.svg"
   xmlns:inkscape="http://www.inkscape.org/namespaces/inkscape"
   xmlns:sodipodi="http://sodipodi.sourceforge.net/DTD/sodipodi-0.dtd"
   xmlns="http://www.w3.org/2000/svg"
   xmlns:svg="http://www.w3.org/2000/svg">
  <sodipodi:namedview
     id="namedview250"
     pagecolor="#ffffff"
     bordercolor="#000000"
     borderopacity="0.25"
     inkscape:showpageshadow="2"
     inkscape:pageopacity="0.0"
     inkscape:pagecheckerboard="0"
     inkscape:deskcolor="#d1d1d1"
     inkscape:document-units="px"
     showgrid="false"
     inkscape:zoom="11.816274"
     inkscape:cx="12.398155"
     inkscape:cy="12.778986"
     inkscape:window-width="1920"
     inkscape:window-height="1009"
     inkscape:window-x="-8"
     inkscape:window-y="-8"
     inkscape:window-maximized="1"
     inkscape:current-layer="layer1" />
  <defs
     id="defs245" />
  <g
     inkscape:label="Layer 1"
     inkscape:groupmode="layer"
     id="layer1">
    <path
       d="M 5.1191505,0.19134387 V 6.2250041 c 0,0.6665422 -0.5404758,1.2065428 -1.2065786,1.2065428 -0.666522,0 -1.2065583,-0.5404606 -1.2065583,-1.2065428 0,-0.6665425 0.5404605,-1.206543 1.2065583,-1.206543 V 3.4094068 c -1.5549419,0 -2.8155871,1.2606554 -2.8155871,2.8155973 0,1.5549417 1.2606452,2.8156073 2.8155871,2.8156073 1.5549264,0 2.8155921,-1.2606656 2.8155921,-2.8156073 V 3.4094068 L 6.8129,3.4519948 C 7.2861031,3.6887955 7.8078073,3.8118773 8.3367685,3.8118773 V 2.2024192 L 8.2886255,2.1904958 C 7.371248,1.9613662 6.7277551,1.1368305 6.7277551,0.19134387 Z"
       id="path1326"
       style="fill:#ffffff;stroke-width:0.0511073" />
  </g>
</svg>
