<?xml version="1.0" encoding="UTF-8" standalone="no"?>
<!-- Uploaded to: SVG Repo, www.svgrepo.com, Generator: SVG Repo Mixer Tools -->

<svg
   fill="#000000"
   height="35"
   width="35"
   version="1.1"
   id="Capa_1"
   viewBox="0 0 11.375 11.375"
   xml:space="preserve"
   sodipodi:docname="Tumblr Logo.svg"
   inkscape:version="1.2.2 (732a01da63, 2022-12-09)"
   xmlns:inkscape="http://www.inkscape.org/namespaces/inkscape"
   xmlns:sodipodi="http://sodipodi.sourceforge.net/DTD/sodipodi-0.dtd"
   xmlns="http://www.w3.org/2000/svg"
   xmlns:svg="http://www.w3.org/2000/svg"><defs
   id="defs144" /><sodipodi:namedview
   id="namedview142"
   pagecolor="#ffffff"
   bordercolor="#000000"
   borderopacity="0.25"
   inkscape:showpageshadow="2"
   inkscape:pageopacity="0.0"
   inkscape:pagecheckerboard="0"
   inkscape:deskcolor="#d1d1d1"
   showgrid="false"
   inkscape:zoom="16.12"
   inkscape:cx="5.8622829"
   inkscape:cy="16.935484"
   inkscape:window-width="1920"
   inkscape:window-height="1009"
   inkscape:window-x="-8"
   inkscape:window-y="-8"
   inkscape:window-maximized="1"
   inkscape:current-layer="Capa_1" />
<path
   d="M 9.228954,8.5162194 C 9.1616242,8.4798857 9.0796195,8.4834276 9.0156611,8.5255107 8.531491,8.8437628 8.0406543,9.0051388 7.5566513,9.0051388 7.296566,9.0051388 7.0731069,8.9470526 6.8726472,8.8270127 6.7363961,8.7463451 6.6098118,8.605303 6.5644369,8.4827188 6.5203928,8.3661764 6.5208966,8.0524243 6.5215593,7.6182131 l 2.086e-4,-2.6476423 h 2.1998063 c 0.1150837,0 0.2083344,-0.093292 0.2083344,-0.2083348 V 2.9018909 c 0,-0.1150424 -0.093251,-0.2083347 -0.2083344,-0.2083347 H 6.5217697 V 0.49345841 c 0,-0.11504243 -0.093251,-0.20833471 -0.2083344,-0.20833471 H 4.8315082 c -0.1053337,0 -0.1940846,0.0786255 -0.2068347,0.18320954 C 4.5627564,0.97787824 4.4472556,1.4009644 4.2810468,1.7265082 4.1189621,2.0473436 3.8996689,2.3265538 3.6289172,2.556722 3.4119993,2.7417232 3.040663,2.9207244 2.5251602,3.0887671 2.4394095,3.1167257 2.381409,3.1966428 2.381409,3.2868518 v 1.4754263 c 0,0.1150424 0.093251,0.2083347 0.2083344,0.2083347 h 1.206383 v 3.4444394 c 0,0.5075446 0.053836,0.8894642 0.1646677,1.1677575 0.1129177,0.2827109 0.3133774,0.5489203 0.5959628,0.7913813 0.2779601,0.238167 0.6162536,0.42446 1.0065897,0.554086 0.3784192,0.123418 0.6797958,0.190293 1.1879665,0.190293 0.429586,0 0.8390473,-0.04454 1.2172164,-0.132459 0.3717101,-0.08675 0.7923795,-0.240043 1.2503414,-0.455586 0.073038,-0.03438 0.1196259,-0.107792 0.1196259,-0.188501 V 8.6996373 C 9.3384128,8.6230118 9.2964128,8.5525948 9.228954,8.5162194 Z"
   id="path139"
   style="stroke-width:0.041667;fill:#ffffff;fill-opacity:1" />
</svg>
