<?xml version="1.0" encoding="UTF-8" standalone="no"?>
<!-- Created with Inkscape (http://www.inkscape.org/) -->

<svg
   width="35"
   height="35"
   viewBox="0 0 9.2604165 9.2604166"
   version="1.1"
   id="svg378"
   inkscape:version="1.2.2 (732a01da63, 2022-12-09)"
   sodipodi:docname="Twitter Logo.svg"
   xmlns:inkscape="http://www.inkscape.org/namespaces/inkscape"
   xmlns:sodipodi="http://sodipodi.sourceforge.net/DTD/sodipodi-0.dtd"
   xmlns="http://www.w3.org/2000/svg"
   xmlns:svg="http://www.w3.org/2000/svg">
  <sodipodi:namedview
     id="namedview380"
     pagecolor="#ffffff"
     bordercolor="#000000"
     borderopacity="0.25"
     inkscape:showpageshadow="2"
     inkscape:pageopacity="0.0"
     inkscape:pagecheckerboard="0"
     inkscape:deskcolor="#d1d1d1"
     inkscape:document-units="px"
     showgrid="false"
     inkscape:zoom="16.710735"
     inkscape:cx="3.8597944"
     inkscape:cy="18.969842"
     inkscape:window-width="1920"
     inkscape:window-height="1009"
     inkscape:window-x="-8"
     inkscape:window-y="-8"
     inkscape:window-maximized="1"
     inkscape:current-layer="layer1" />
  <defs
     id="defs375" />
  <g
     inkscape:label="Layer 1"
     inkscape:groupmode="layer"
     id="layer1">
    <path
       d="M 8.7640428,2.1289151 C 8.4608223,2.2667366 8.1339762,2.3573054 7.7953633,2.4006177 8.1418669,2.1919218 8.4096476,1.861153 8.5356233,1.4634416 8.208824,1.6603292 7.846538,1.7981463 7.4645951,1.8769023 7.1534831,1.5382566 6.716396,1.3413738 6.2202434,1.3413738 c -0.9253488,0 -1.6813913,0.7560426 -1.6813913,1.6892822 0,0.1338811 0.015749,0.2638256 0.043316,0.385894 C 3.1803383,3.3456709 1.932079,2.6723203 1.1012215,1.6524522 0.95552747,1.9005286 0.87283525,2.1919218 0.87283525,2.4990635 c 0,0.5867176 0.29532895,1.1064965 0.75210165,1.4018262 -0.2795751,0 -0.5394646,-0.078751 -0.76785569,-0.1968832 0,0 0,-4.6e-6 0,0.011806 0,0.8190683 0.58278599,1.5042316 1.35457769,1.6578025 C 2.069901,5.412973 1.920266,5.432683 1.7666949,5.432683 1.6603763,5.432683 1.5540579,5.420869 1.4516802,5.401167 1.6643171,6.0666269 2.282538,6.5627794 3.0267672,6.5745922 2.4518583,7.0313844 1.723383,7.299165 0.92796025,7.299165 c -0.13388095,0 -0.26776191,-0.00789 -0.4016477,-0.023627 0.74817025,0.4803702 1.63809355,0.7599644 2.59102385,0.7599644 3.102907,0 4.8079722,-2.5752697 4.8079722,-4.8079624 0,-0.074814 0,-0.1456939 -0.00399,-0.2205141 0.3307717,-0.2362636 0.6142879,-0.5355284 0.8427073,-0.87811 z"
       id="path10"
       style="fill:#ffffff;stroke-width:0.0472526" />
  </g>
</svg>
