<?xml version="1.0" encoding="UTF-8" standalone="no"?>
<!-- Created with Inkscape (http://www.inkscape.org/) -->

<svg
   width="35"
   height="35"
   viewBox="0 0 9.2604165 9.2604166"
   version="1.1"
   id="svg248"
   inkscape:version="1.2.2 (732a01da63, 2022-12-09)"
   sodipodi:docname="YouTube Logo.svg"
   xmlns:inkscape="http://www.inkscape.org/namespaces/inkscape"
   xmlns:sodipodi="http://sodipodi.sourceforge.net/DTD/sodipodi-0.dtd"
   xmlns="http://www.w3.org/2000/svg"
   xmlns:svg="http://www.w3.org/2000/svg">
  <sodipodi:namedview
     id="namedview250"
     pagecolor="#ffffff"
     bordercolor="#000000"
     borderopacity="0.25"
     inkscape:showpageshadow="2"
     inkscape:pageopacity="0.0"
     inkscape:pagecheckerboard="0"
     inkscape:deskcolor="#d1d1d1"
     inkscape:document-units="px"
     showgrid="false"
     inkscape:zoom="16.710735"
     inkscape:cx="12.297484"
     inkscape:cy="15.977754"
     inkscape:window-width="1920"
     inkscape:window-height="1009"
     inkscape:window-x="-8"
     inkscape:window-y="-8"
     inkscape:window-maximized="1"
     inkscape:current-layer="layer1" />
  <defs
     id="defs245" />
  <g
     inkscape:label="Layer 1"
     inkscape:groupmode="layer"
     id="layer1">
    <path
       d="M 3.7183649,5.9390192 6.0521881,4.5899792 3.7183649,3.2409445 Z M 8.9166858,2.4180301 c 0.058444,0.211346 0.098911,0.4946445 0.1258921,0.8543903 0.031459,0.3597458 0.044948,0.670025 0.044948,0.939833 l 0.026984,0.3777258 c 0,0.9847993 -0.071932,1.7088021 -0.197823,2.1719545 -0.1124564,0.4047121 -0.3732529,0.6655084 -0.7779651,0.7779645 -0.2113675,0.05844 -0.5980559,0.098912 -1.1916334,0.1258925 -0.58462,0.031459 -1.1197032,0.04495 -1.6143694,0.04495 l -0.7149912,0.02698 c -1.8841611,0 -3.0578259,-0.071931 -3.5209945,-0.1978231 C 0.69202024,7.4274421 0.43120227,7.1666458 0.3187839,6.7619337 0.26032734,6.5505661 0.2198562,6.2672678 0.19287534,5.9075597 0.16139417,5.5477977 0.14790374,5.2375185 0.14790374,4.9677105 L 0.12092303,4.5899792 c 0,-0.9847939 0.071952,-1.7087805 0.19786087,-2.1719491 0.11241837,-0.404712 0.37323634,-0.66553 0.7779483,-0.7779482 0.211346,-0.058457 0.5980726,-0.098928 1.1916502,-0.1259086 0.5845823,-0.031481 1.1197033,-0.044972 1.6143531,-0.044972 l 0.7149913,-0.026981 c 1.8841772,0 3.0578423,0.071953 3.5209939,0.1978609 0.4047122,0.1124183 0.6655087,0.3732363 0.7779651,0.7779489 z"
       id="path1486"
       style="fill:#ffffff;stroke-width:0.0539616" />
  </g>
</svg>
