<?xml version="1.0" encoding="UTF-8" standalone="no"?>
<svg
   width="1410"
   height="908"
   viewBox="0 0 1410 908"
   fill="none"
   version="1.1"
   id="svg996"
   sodipodi:docname="helloworld.svg"
   inkscape:version="1.2.2 (732a01da63, 2022-12-09)"
   xmlns:inkscape="http://www.inkscape.org/namespaces/inkscape"
   xmlns:sodipodi="http://sodipodi.sourceforge.net/DTD/sodipodi-0.dtd"
   xmlns="http://www.w3.org/2000/svg"
   xmlns:svg="http://www.w3.org/2000/svg">
  <sodipodi:namedview
     id="namedview998"
     pagecolor="#ffffff"
     bordercolor="#000000"
     borderopacity="0.25"
     inkscape:showpageshadow="2"
     inkscape:pageopacity="0.0"
     inkscape:pagecheckerboard="0"
     inkscape:deskcolor="#d1d1d1"
     showgrid="false"
     inkscape:zoom="0.42907801"
     inkscape:cx="805.21488"
     inkscape:cy="533.70248"
     inkscape:window-width="1920"
     inkscape:window-height="1009"
     inkscape:window-x="-8"
     inkscape:window-y="-8"
     inkscape:window-maximized="1"
     inkscape:current-layer="svg996" />
  <g
     clip-path="url(#clip0)"
     filter="url(#filter0_d)"
     id="g887"
     transform="matrix(1.0061933,0,0,1.0088889,-4.0247734,0)">
    <rect
       width="1402"
       height="900"
       transform="translate(4)"
       fill="#ffffff"
       id="rect501"
       x="0"
       y="0" />
    <rect
       x="4"
       width="1402"
       height="900"
       fill="url(#paint0_radial)"
       id="rect503"
       style="fill:url(#paint0_radial)"
       y="0" />
    <g
       opacity="0.5"
       id="g511">
      <circle
         cx="1228.88"
         cy="390.88199"
         r="310.88199"
         fill="url(#paint1_linear)"
         id="circle505"
         style="fill:url(#paint1_linear)" />
      <path
         d="m 1498.31,432.333 c 0,80.124 -64.95,145.078 -145.08,145.078 -80.12,0 -145.07,-64.954 -145.07,-145.078 0,-39.53 57.26,-36.01 82.9,-62.177 26.33,-26.871 21.58,-82.902 62.17,-82.902 80.13,0 145.08,64.954 145.08,145.079 z"
         fill="url(#paint2_linear)"
         id="path507"
         style="fill:url(#paint2_linear)" />
      <path
         d="m 1230.88,201.179 c 12.55,-44.031 58.42,-69.551 102.45,-56.999 44.04,12.551 69.56,58.42 57,102.452 -6.19,21.723 -37.1,10.819 -55.29,21.182 -18.68,10.642 -24.85,42.177 -47.16,35.818 -44.03,-12.552 -69.55,-58.421 -57,-102.453 z"
         fill="url(#paint3_linear)"
         id="path509"
         style="fill:url(#paint3_linear)" />
    </g>
    <path
       d="M 390.555,291.407 1182.25,336.317 608.514,1015 -184.408,862.896 Z"
       fill="url(#paint4_radial)"
       fill-opacity="0.4"
       id="path513"
       style="fill:url(#paint4_radial)" />
    <path
       d="M 248.378,216.01 1185.48,274.558 501.794,1074.25 -436.072,888.77 Z"
       fill="url(#paint5_radial)"
       fill-opacity="0.4"
       id="path515"
       style="fill:url(#paint5_radial)" />
    <path
       d="M 624.336,519.067 C 388.58,484.689 112.547,563.532 4,607.25 V 900 H 1408.92 V 494 c -33.8,18.95 -177.35,73.5 -250.7,73.5 -123.65,0 -239.189,-5.46 -533.884,-48.433 z"
       fill="url(#paint6_linear)"
       id="path517"
       style="fill:url(#paint6_linear)" />
    <g
       opacity="0.2"
       id="g535">
      <path
         d="m 1420.03,163.663 c -26.43,-15.18 -42.78,-20.061 -58.07,-44.841 -19.99,-6.087 -22.99,-12.152 -47.35,-15.026 -12.28,-1.449 -52.18,-32.5216 -57.68,-29.5173 -28.65,15.6397 -28.45,34.7393 -66.68,19.0247 -26.51,-10.8966 -54.41,-7.6901 -81.5,-15.2901 -9.53,-2.6741 -34.91,-4.9239 -40.74,-10.29 -16.43,-15.1097 -17.18,-33.7967 -46.65,-38.1829 -20.75,-3.0892 -48.672,-0.4486 -65.374,9.7401 -32.241,19.6682 -57.694,14.8705 -94.345,11.4317 -27.438,-2.5745 -30.34,-30.8368 -56.139,-37.898 -23.893,-6.53923 -56.43,-1.1876 -78.495,7.3334 -10.95,4.2288 -22.455,21.7929 -32.425,23.7088 -6.256,1.2023 -30.776,-10.571 -38.025,-11.505 -22.584,-2.9099 -43.976,-0.6351 -64.928,6.5485 -36.037,12.3553 -42.791,43.0962 -27.018,70.6631 14.251,24.906 -19.992,3.201 -47.902,9.616 -26.897,6.182 -4.783,20.73 7.697,28.061 20.842,12.243 90.965,35.033 97.495,56.771 6.803,22.647 -17.182,35.393 -40.704,30.869 -20.09,-3.864 -43.875,-6.278 -62.997,-12.378 -31.985,-10.205 -33.019,-16.469 -43.987,7.631 -10.389,22.83 -47.74,-3.305 -67.988,2.44 -11.369,3.226 -13.529,38.126 -28.173,29.693 -62.34,-35.899 -130.905,-18.432 -181.037,25.345 -8.895,7.768 -11.76,50.599 -35.172,35.504 -21.961,-14.16 -5.777,0.261 -25.085,10.287 -10.112,5.251 -75.6699,-30.925 -82.9949,-35.714 -28.8839,-18.888 -77.8828,-9.867 -95.7224,18.651 -8.4281,13.473 -23.2552,31.152 -44.4253,21.113 -11.2902,-5.354 -5.9425,-12.555 -19.0574,-4.14 -20.14,12.923 -43.871,12.46 -68.892,11.468 -39.461,-1.564 12.335,6.467 26.18,10.394 57.0539,16.182 95.6997,-28.35 155.4892,-6.577 25.7501,9.378 58.7809,8.455 86.818,11.086 29.1728,2.737 56.5688,15.225 85.7588,18.63 17.531,2.044 33.701,8.453 50.955,10.072 14.667,1.376 26.205,-8.732 40.234,-6.808 14.112,1.936 17.894,28.493 27.661,36.108 15.629,12.185 25.952,-3.98 37.215,-11.207 25.654,-16.461 71.547,8.478 95.434,24.829 15.244,10.435 13.586,21.028 27.839,29.657 18.469,11.182 29.713,29.251 22.718,47.991 -3.568,9.56 -16.631,-2.207 -15.204,15.036 1.017,12.288 -15.148,13.151 -24.512,19.159 -8.199,5.261 -2.217,13.021 -15.474,11.777 -19.815,-1.859 -34.773,-17.369 -55.273,-20.767 -43.349,-7.185 -32.785,42.847 -39.484,63.615 -1.51,4.684 -64.878,-30.15 -75.539,-34.427 -19.701,-7.905 -23.945,1.039 -32.637,14.87 -24.23,38.55 -80.774,44.956 -129.3794,40.774 -21.6167,-1.859 -94.021183,-18.871 -113.2818,-6.513 -0.4279,0.274 26.22067,8.745 27.10186,9.01 12.57124,3.789 25.11134,7.648 37.66664,11.472 29.0207,8.838 41.1705,10.468 70.6727,6.925 22.362,-2.687 32.385,13.146 52.442,20.206 29.083,10.238 45.894,-29.278 82.441,-19.897 20.848,5.351 -3.109,63.999 5.118,77.5 11.035,18.109 67.798,27.548 87.39,19.958 12.114,-4.693 10.763,-13.242 18.565,-18.248 5.077,-3.257 5.295,7.568 5.402,8.15 3.022,16.446 10.034,32.365 19.569,47.107 11.256,17.405 66.008,63.38 94.996,38.31 11.629,-10.057 0.767,-26.175 2.344,-37.408 1.551,-11.04 27.017,4.299 40.676,5.581 22.928,2.151 45.465,-5.475 66.42,-11.994 20.817,-6.475 5.079,-21.499 19.004,-31.729 10.535,-7.739 15.804,1.41 18.443,-17.378 3.247,-23.12 30.917,-5.624 52.512,-3.598 51.185,4.803 103.795,6.95 153.42,18.511 44.667,10.405 -42.698,-20.286 -54.106,-23.891 -34.755,-10.982 -103,-9.977 -128.117,-35.538 -4.788,-4.872 12.23,-44.064 14.188,-49.232 6.191,-16.343 4.871,-23.513 -13.954,-30.118 -12.456,-4.37 -13.415,-8.988 -1.201,-12.165 34.286,-8.92 29.568,-39.005 0.849,-57.832 -22.319,-14.631 -54.416,8.323 -75.706,-4.752 -16.053,-9.859 -44.783,-43.077 -9.748,-49.713 8.081,-1.531 65.941,-17.725 31.837,-27.292 -21.918,-6.148 21.657,-24.72 30.294,-31.846 21.707,-17.907 11.68,-37.697 52.181,-40.081 24.759,-1.457 34.988,-17.883 61.085,-15.434 36.141,3.391 67.798,16.944 103.347,20.28 10.112,0.949 44.194,3.228 52.586,-1.533 2.747,-1.559 -21.217,-20.581 -23.074,-22.155 -26.626,-22.569 -28.684,-43.299 13.633,-50.46 14.243,-2.409 56.523,-6.414 67.138,-11.926 10.169,-5.281 -3.743,-14.58 16.396,-13.16 16.37,1.154 32.365,3.328 48.475,-0.743 29.84,-7.541 39.66,-18.489 69.98,-1.078 16.8,9.652 31.48,19.778 53.13,15.275 10.57,-2.199 13.15,-3.081 20.51,-1.016 36.32,10.19 37.54,40.857 75.23,44.393 19.69,1.847 48.69,3.772 67.59,-2.183 13.99,-4.409 4.63,-23.433 3.8,-32.274 -0.91,-9.793 4.48,-20.492 -2.46,-29.04 -6.36,-7.827 -18.07,-18.35 -17.15,-28.067 4.18,-44.38 52.84,10.717 59.58,-7.343 4.58,-12.281 -1.37,-30.967 13.2,-39.623 15.7,-9.328 43.22,-6.97 61.5,-8.046 21.52,-1.267 2.93,-19.373 -6.35,-24.701 z"
         fill="url(#paint7_linear)"
         id="path519"
         style="fill:url(#paint7_linear)" />
      <path
         d="m 1291.3,260.273 c 15.67,6.58 5.13,-16.223 5.15,-20.225 4.73,-9.511 41.64,-1.016 46.84,-16.622 2.59,-7.778 -47.66,0.809 -54.27,0.77 -7.79,-0.046 -36.29,-5.809 -41.61,-1.334 -12.02,10.096 -24.05,18.948 -43.49,12.814 -7.97,-2.519 -33.5,-0.424 -27.7,-7.788 4.27,-5.419 24.37,-4.078 23.56,-14.141 -0.38,-4.805 -27.93,-4.516 -32.7,-5.033 -11.93,-1.295 -21.01,-5.804 -31.61,-9.384 -7.85,-2.654 -20.68,-4.478 -29.5,-4.53 -27.47,-0.162 -56.32,5.924 -79.43,15.87 -12.79,5.504 -22.32,13.516 -39.387,11.628 -3.76,-0.416 19.287,-17.418 20.047,-21.423 1.77,-9.288 -23.906,9.188 -28.697,10.117 -10.757,2.087 -22.262,-2.943 -29.484,-7.918 -5.646,-3.891 -2.571,-21.303 -9.503,-17.483 -11.678,6.436 -28.011,0.088 -38.456,5.34 -12.65,6.361 -35.151,7.5 -47.049,14.488 -10.612,6.233 -16.323,8.272 -24.535,5.024 -3.61,-1.428 13.201,-9.841 9.625,-10.558 -10.47,-2.099 -35.862,3.342 -43.105,9.428 -8.431,7.084 -28.278,1.517 -37.76,7.886 -3.273,2.199 8.506,12.95 8.795,16.995 0.947,13.263 8.039,21.83 -16.138,21.688 -20.662,-0.122 -35.271,12.702 -43.373,24.675 -4.334,6.404 -1.489,9.799 -9.697,15.312 l -25.539,17.155 c -13.339,8.96 -26.577,9.737 -43.498,15.719 -12.583,4.448 -1.534,22.929 -16.881,27.009 -10.126,2.691 -20.162,10.444 -29.958,12.288 -7.558,1.423 -15.922,0.667 -23.85,2.159 -19.491,3.67 -40.594,1.94 -60.85,1.821 -14.278,-0.085 -27.879,-7.016 -42.299,-6.784 -17.954,0.288 -27.838,14.055 -35.356,22.785 -3.94,4.575 -11.352,-8.685 -14.173,-10.007 -16.253,-7.619 -42.529,-15.524 -61.853,-9.077 -12.183,4.064 -11.68,17.358 -25.896,17.274 -13.834,-0.081 -23.646,-2.776 -36.613,-5.54 -15.918,-3.394 -40.991,-1.01 -53.937,6.096 -8.412,4.618 -8.968,11.775 -20.012,15.01 -10.307,3.019 -28.876,9.312 -39.905,9.689 -10.718,0.365 -17.059,10.807 -22.509,16.084 -4.945,4.787 -13.815,8.156 -0.046,7.745 11.875,-0.356 17.638,-12.474 30.673,-12.89 10.13,-0.323 29.82,4.978 38.241,1.072 12.731,-5.905 21.76,-14.228 35.691,-19.153 14.546,-5.142 30.377,-2.847 39.454,6.525 5.01,5.174 27.335,7.751 35.169,9.042 11.122,1.833 14.57,1.703 20.05,8.831 4.924,6.405 9.278,11.977 20.919,12.225 12.753,0.272 23.862,-6.192 36.683,-6.319 14.674,-0.146 21.831,-0.051 31.978,7.207 10.267,7.344 10.766,9.375 25.577,6.686 15.979,-2.901 77.145,15.812 50.376,24.742 -12.453,4.155 -60.008,5.758 -43.191,23.95 3.525,3.813 29.212,16.388 17.338,16.318 -8.098,-0.047 -22.408,-1.146 -22.453,6.403 -0.061,10.457 15.022,11.273 25.709,14.674 6.845,2.179 45.931,18.435 22.827,20.465 -23.565,2.072 -42.022,5.024 -63.398,11.729 -11.23,3.523 -11.839,-0.865 -18.115,-5.189 -8.315,-5.729 -16.974,-1.584 -24.911,1.063 -7.89,2.632 -14.937,-2.402 -19.89,-5.684 -11.701,-7.752 -32.117,-6.055 -45.709,-1.721 -15.219,4.853 -10.854,9.485 -19.49,16.949 -7.875,6.807 -57.397,-14.386 -62.128,7.501 -1.304,6.034 10.138,12.349 -1.243,12.282 -10.392,-0.061 -21.481,10.054 -21.515,15.902 -0.12,20.382 19.548,-0.099 22.617,-4.223 4.149,-5.576 43.606,-8.457 50.927,-8.414 l 27.394,0.161 c 7.357,0.044 7.518,10.405 12.726,13.992 15.002,10.336 36.706,1.515 52.796,6.483 7.381,2.279 15.145,3.464 22.38,5.699 8.646,2.669 6.316,5.809 12.04,9.752 5.498,3.788 9.861,3.519 5.274,10.56 -3.578,5.493 -7.244,15.084 -17.522,15.024 -19.889,-0.117 -47.15,-12.415 -65.411,-8.977 -11.034,2.077 -22.051,5.284 -33.839,6.698 -17.269,2.073 -28.552,2.497 -12.157,10.337 24.079,11.514 -23.431,4.015 -29.599,11.685 -14.901,18.529 -26.618,25.016 -57.605,24.833 -18.956,-0.111 -41.997,1.608 -54.554,-10.123 -18.546,-17.327 -35.22,-25.259 -66.915,-25.445 -14.9847,-0.088 -28.9887,3.261 -44.3039,1.433 -13.6289,-1.626 -22.8256,-8.933 -31.9297,-15.436 -11.1043,-7.932 -36.0166,-24.745 -52.933,-13.382 -6.7506,4.535 -0.3407,17.185 1.6477,22.278 3.7563,9.619 12.0252,21.085 -4.2515,27.204 -10.4729,3.937 -19.4672,3.84 -30.4242,0.789 -7.877,-2.193 -26.9835,-9.528 -26.9432,-16.375 0.0351,-5.956 11.9112,-11.009 -0.1067,-12.103 -15.2615,-1.388 -14.6595,-5.973 -30.7465,-4.9 -15.004,1 -24.116,-3.042 -36.266,-4.086 -12.345,-1.062 -21.781,-6.744 -35.91,-4.084 -8.989,1.692 -15.706,4.366 -22.465,8.581 -12.498,7.792 -28.916,13.115 -40.751,2.422 -5.679,-5.13 -7.257,-22.124 -14.808,-22.959 -7.575,-0.838 -28.256,-6.415 -29.899,2.244 -2.069,10.896 -4.14,13.834 -19.448,9.688 -17.612,-4.771 -15.338,5.339 -16.092,13.944 -0.491,5.61 -17.554,-2.174 -21.689,-2.306 -10.526,-0.338 -10.197,1.926 -19.913,-1.812 l -0.796,-0.306 c -9.527,-3.669 -19.12,-7.363 -30.471,-6.897 -38.764,1.59 -27.583,42.461 -63.78,46.217 -9.497,0.986 -18.799,-0.958 -28.278,-1.014 -6.478,-0.038 -7.889,5.588 -11.613,8.403 -9.055,6.847 -24.778,4.229 -33.324,9.97 -4.469,3.001 3.536,11.98 7.747,13.6 4.087,1.572 9.17,-0.569 12.818,-1.619 8.952,-2.577 18.587,-2.069 28.118,-2.013 14.663,0.086 53.33,10.115 64.017,4.249 1.514,-0.831 2.513,-5.115 3.951,-6.512 4.546,-4.414 11.361,-7.861 17.711,-11.074 l 0.858,-0.434 c 16.927,-8.575 53.628,-12.48 69.926,-2.493 4.11,2.518 10.782,11.536 16.474,11.957 0.825,0.061 -0.425,-10.991 0.068,-11.618 3.422,-4.343 22.239,0.918 27.75,0.164 17.106,-2.342 37.095,-1.962 53.055,-7.191 17.796,-5.831 19.11,-21.747 38.694,-15.626 5.468,1.709 38.25,6.723 33.201,11.087 -6.272,5.421 -15.432,5.361 -24.592,5.302 l -0.878,-0.006 c -8.85,-0.052 -15.256,8.572 -22.661,11.727 -8.628,3.674 -22.567,7.612 -32.777,7.552 l 24.192,0.142 c 11.433,0.068 18.353,-4.531 29.565,-5.877 20.329,-2.439 40.731,-6.245 61.574,-3.994 17.741,1.916 20.306,8.14 24.495,18.3 l 0.298,0.725 c 1.908,4.619 11.289,-10.984 17.5071,-12.483 8.9884,-2.167 12.1312,2.97 19.3661,4.108 5.5196,0.867 11.8862,-5.115 16.0532,-7.288 5.2591,-2.743 17.7803,-1.106 24.0217,-1.069 21.1094,0.124 41.91429,-0.624 60.1795,-8.843 11.1101,-4.999 30.1175,-18.413 42.3854,-7.98 7.5858,6.451 -0.4444,20.017 16.6057,19.703 12.5049,-0.23 52.0433,-4.206 29.6243,14.212 -4.767,3.917 -10.744,7.515 -16.2523,10.917 -0.5995,0.371 -3.8646,2.044 -7.386,3.799 -5.1795,0.599 -9.7251,1.876 -9.7409,4.572 -0.0012,0.205 5.0929,-2.255 9.7409,-4.572 5.4745,-0.632 11.6573,-0.506 13.9483,-0.492 9.392,0.055 29.694,-2.508 36.81,2.395 6.095,4.199 3.967,10.547 7.026,15.289 5.515,8.552 22.617,15.394 34.397,19.324 22.081,7.366 18.986,-1.841 29.597,-11.444 10.754,-9.733 20.932,7.8 32.897,2.251 12.486,-5.791 16.434,-20.3 33.696,-12.63 16.413,7.294 11.587,26.527 17.389,37.74 1.983,3.832 5.172,-16.441 6.687,-17.751 2.391,-2.067 8.636,-1.868 10.343,-4.417 3.293,-4.914 0.142,-12.345 1.527,-17.659 2.542,-9.749 15.311,-2.092 15.356,-9.592 0.054,-9.324 1.871,-8.467 16.073,-10.797 25.198,-4.133 41.626,-13.886 64.168,-21.405 25.49,-8.504 41.819,4.189 33.505,19.802 -8.569,16.091 -24.079,37.034 -54.625,32.232 -9.533,-1.498 26.589,15.042 30.331,15.064 13.26,0.078 13.345,-13.554 26.417,-15.093 12.533,-1.475 19.701,-5.655 27.468,-12.424 13.135,-11.447 20.28,-6.763 39.174,-6.304 9.178,0.222 22.923,1.717 30.26,-3.211 4.793,-3.219 5.473,-20.396 7.234,-20.167 12.554,1.627 16.697,7.525 25.098,-2.515 5.887,-7.035 8.023,-11.13 17.707,-16.234 29.791,-15.699 -15.301,-35.455 -30.337,-44.229 -8.396,-4.899 -22.817,-13.534 -16.59,-22.365 4.534,-6.431 24.209,-1.444 19.263,-8.6 -5.014,-7.254 -19.77,-26.257 0.865,-26.135 10.047,0.059 21.773,1.262 30.26,-3.211 6.608,-3.482 3.401,-14.018 11.823,-13.968 7.129,0.042 37.766,2.499 39.69,-3.276 6.555,-19.675 -28.478,-18.442 -46.321,-18.547 -6.989,-0.041 -22.733,0.096 -23.798,-6.675 -1.12,-7.117 10.854,-11.511 9.721,-19.548 -2.116,-15.009 -47.97,-10.296 -47.869,-27.511 0.043,-7.361 6.127,-22.912 17.581,-25.068 15.822,-2.979 -3.268,-34.166 -5.107,-39.119 -2.624,-7.069 -4.181,-15.68 -2.177,-23.007 2.219,-8.108 17.806,-5.22 26.715,-5.167 6.46,0.038 13.083,-13.387 17.357,-17.325 5.026,-4.631 12.236,-16.245 20.036,-19.003 18.156,-6.418 37.339,-4.793 55.15,-0.643 10.758,2.506 30.625,10.201 42.118,7.146 2.012,-0.535 -12.866,-4.312 -15.629,-4.328 -11.895,-0.07 -12.176,-2.293 -14.53,-9.646 -1.531,-4.781 -15.269,-6.938 -20.403,-9.197 -23.066,-10.147 2.836,-11.432 14.3,-11.775 16.536,-0.495 66.766,15.711 73.609,6.514 15.976,-21.47 13.202,-24.395 35.329,-18.096 18.723,5.329 7.289,-3.596 1.65,-8.341 -6.663,-5.607 -15.646,-5.659 -25.28,-5.715 l -0.302,-0.002 c -9.573,-0.056 -45.745,-5.809 -46.352,-13.343 -1.386,-17.212 32.516,-19.414 51.347,-19.303 4.369,0.026 36.13,2.106 30.26,-3.089 -3.998,-3.539 -10.979,-8.551 -10.952,-13.135 0.033,-5.656 9.691,-5.342 3.266,-10.872 -5.664,-4.874 -3.13,-12.222 -3.094,-18.413 0.058,-9.889 11.33,-24.683 28.959,-23.913 18.062,0.789 2.615,18.508 19.074,23.59 7.306,2.256 12.22,-9.343 20.86,-7.985 10.264,1.613 16.265,15.783 17.306,21.643 0.555,3.122 1.315,13.425 4.891,15.398 4.251,2.347 12.125,15.078 15.921,15.1 3.185,0.019 1.69,-15.189 1.702,-17.174 0.031,-5.227 4.171,-9.518 9.683,-13.013 9.188,-5.828 26.913,-0.808 35.917,2.873 2.878,1.177 13.941,7.531 17.756,5.672 3.012,-1.469 2.359,-3.678 7.138,-3.831 9.497,-0.303 19.392,0.909 28.818,0.049 9.956,-0.909 6.136,-10.735 19.276,-10.658 19.06,0.113 23.12,-8.305 25.9,-18.484 4.37,-15.96 29.54,-12.344 47.92,-11.578 9.18,0.383 16.6,6.021 25.58,6.686 8.31,0.614 25.87,2.746 31.98,6.723 6.6,4.296 6.98,22.962 9.61,29.343 4.71,11.4 40.81,3.006 47.79,11.415 12.82,15.452 6.86,36.19 34.95,46.435 13.03,4.754 2.36,-17.038 7.22,-18.11 7.12,-1.57 20.68,2.439 29.53,0.9 5.41,-0.943 28.41,-12.154 13.07,-14.567 -6.66,-1.046 -14.06,0.333 -20.81,-0.364 -10.73,-1.107 -44.76,-12.346 -44.71,-20.837 0.07,-12.467 16.57,-21.186 32.88,-24.373 13.58,-2.654 25.98,2.872 36.95,7.479 z"
         fill="url(#paint8_linear)"
         id="path521"
         style="fill:url(#paint8_linear)" />
      <path
         d="m 522.982,535.631 c -22.539,-27.422 -19.225,-61.473 -19.046,-91.837 -10.833,3.614 -34.642,10.441 -41.103,18.041 -8.372,9.849 -9.29,28.547 -23.214,35.81 -17.696,9.231 -38.978,-9.671 -58.966,-3.756 -6.558,1.941 -27.344,3.974 -14.396,7.972 15.54,4.799 10.573,26.569 10.041,35.386 -0.23,3.817 -57.373,17.016 -65.694,16.967 -21.896,-0.129 -43.386,-13.55 -63.281,-5.951 -7.995,3.054 2.796,15.201 -3.3,18.884 -4.627,2.796 -25.426,0.47 -31.888,0.432 -21.63,-0.127 -39.232,6.325 -59.732,10.184 -16.804,3.164 18.73,3.519 22.755,3.543 8.783,0.052 56.982,3.362 52.992,12.707 -4.458,10.442 -34.627,12.026 -47.218,12.427 -11.768,0.376 -29.553,4.931 -40.361,8.13 -11.438,3.385 10.483,18.944 12.85,22.387 7.18,10.442 -11.02,9.723 -17.399,15.237 -10.55,9.119 -12.688,9.686 -31.031,9.578 -17.1143,-0.1 -30.2642,-1.249 -42.9871,-10.014 -3.1006,-2.136 -15.3196,-15.903 -18.3609,-14.827 -10.2966,3.64 -4.427,17.569 -20.5722,12.584 -8.9324,-2.759 -17.17535,-9.608 -26.8131,-10.539 -11.1662,-1.079 -45.561,-2.299 -54.2231,2.934 -4.3604,2.635 3.8083,8.787 4.9457,11.03 4.6915,9.253 2.1552,20.781 2.0987,30.381 -0.0306,5.197 1.6527,76.206 34.2994,54.276 11.24835,-7.555 15.15186,-24.896 31.1416,-28.325 29.1059,-6.243 73.211,0.882 102.466,4.166 22.175,2.489 45.587,-0.883 67.404,1.946 10.471,1.358 18.208,8.803 30.945,4.986 15.469,-4.636 26.193,-7.593 43.09,-7.494 17.473,0.103 27.327,23.75 47.033,19.18 9.598,-2.226 18.875,-10.425 28.758,-10.367 22.076,0.13 22.221,23.091 33.065,31.803 14.923,11.987 73.991,5.083 92.894,5.195 14.927,0.087 13.684,-7.121 23.531,-12.257 9.291,-4.846 35.254,-1.342 47.153,-1.272 20.878,0.123 24.71,-18.757 41.11,-19.281 24.538,-0.782 40.068,3.024 52.464,-13.636 5.388,-7.241 44.183,-0.701 44.267,-14.853 46.414,-6.738 67.053,10.762 105.115,26.888 5.165,2.188 44.943,7.944 33.899,-1.35 -5.713,-4.807 -11.803,-8.287 -18.146,-12.657 -24.069,-16.582 -53.088,-17.894 -85.263,-24.827 -32.723,-7.051 -68.689,-2.699 -102.453,-6.181 -16.47,-1.698 -13.172,-6.448 -13.116,-16.036 0.033,-5.558 -22.299,-22.938 -31.054,-25.283 -11.568,-3.1 -47.753,2.111 -46.631,-10.036 0.64,-6.926 18.097,-4.912 24.403,-5.589 12.611,-1.355 24.278,-7.791 38.993,-7.983 27.457,-0.357 45.497,-4.132 71.799,-9.338 49.47,-9.794 -53.636,-16.525 -15.1,-27.204 16.398,-4.544 10.382,-31.679 -13.964,-26.732 -9.152,1.86 -21.757,0.381 -29.856,3.388 -16.257,6.035 -33.979,15.39 -51.359,19.375 -31.354,7.189 -1.371,-9.264 5.548,-13.912 7.825,-5.256 -15.35,-20.407 -18.533,-24.28 z"
         fill="url(#paint9_radial)"
         id="path523"
         style="fill:url(#paint9_radial)" />
      <path
         d="m 1352.13,175.372 c 9.96,-12.042 41.11,-20.798 61.39,-22.969 -1.67,-2.617 -5.17,-3.937 -12.39,-4.269 -7.43,-0.341 -15.04,-0.089 -22.48,-0.133 -10.58,-0.062 -23.64,2.177 -30.52,-4.398 -7.88,-7.536 -14.14,-0.711 -22.48,0.184 -16.36,1.758 -20.31,-2.884 -28.93,-10.506 -4.31,-3.82 -7.62,-6.689 -15.46,-6.735 -12.69,-0.075 -22.33,1.78 -22.39,11.048 -0.04,7.174 -9.19,16.975 -18.41,20.141 -5.83,2.002 -21.67,2.129 -24.79,-2.045 -3.84,-5.136 -5.52,-15.976 -16.82,-14.336 -12.78,1.856 -28.43,19.814 -34.94,11.079 -12.13,-16.26 -29.32,-13.472 -51.87,-11.801 -16.84,1.248 -57.87,22.113 -70.88,6.438 -0.32,-0.386 -25.39,4.705 -30.73,4.459 -6.89,-0.316 -13.836,-11.46 -20.693,-13.199 -17.831,-4.523 -33.341,18.822 -48.603,13.53 -4.282,-1.485 -5.957,-9.678 -7.369,-12.277 -4.414,-8.119 -5.633,-18.542 -13.027,-25.705 -8.578,-8.311 -21.329,-0.521 -26.072,4.698 -4.155,4.571 -24.856,13.109 -31.348,5.51 -8.573,-10.033 -22.704,-15.701 -39.431,-17.317 -11.539,-1.115 -25.263,-1.229 -25.211,-10.0622 0.095,-16.0684 -2.493,-1.0958 -9.779,2.1572 -9.365,4.181 -31.765,3.963 -43.283,5.124 -17.942,1.808 -12.549,-8.2219 -22.237,-14.896 -6.364,-4.3845 -25.254,-2.703 -32.096,0.8657 -19.451,10.1463 -21.639,3.3925 -40.426,-6.144 -13.786,-6.9975 -24.393,-3.9111 -39.361,-2.8683 -25.073,1.7469 0.562,9.8212 7.986,12.8083 11.848,4.7668 14.891,6.5083 0.412,9.0723 l -0.728,0.129 c -9.956,1.758 -18.671,3.297 -18.717,11.147 -0.062,10.558 -1.027,23.706 3.832,33.772 3.007,6.229 4.91,3.621 -4.694,7.354 -7.965,3.096 -16.052,5.25 -24.232,7.979 -6.009,2.004 -33.863,16.892 -18.721,19.928 16.025,3.213 12.669,7.445 12.601,18.952 -0.054,9.258 3.904,7.617 16.543,7.691 13.911,0.082 29.243,-1.545 41.369,4.041 12.071,5.56 7.487,16.09 12.262,23.907 2.719,4.452 9.688,8.371 10.308,13.455 0.972,7.978 4.357,24.997 -13.327,25.338 -9.354,0.181 -28.023,1.872 -35.328,-3.161 -8.206,-5.653 16.1,-33.021 -6.936,-33.157 -13.201,-0.077 -26.899,3.302 -37.721,8.321 -10.285,4.77 -8.925,-1.002 -18.133,-1.056 -13.921,-0.082 -38.76,-0.199 -50.106,5.506 -12.557,6.314 -12.91,10.426 3.189,11.304 23.401,1.275 21.611,15.775 21.542,27.442 -0.076,13.039 -4.775,2.534 -10.533,-1.433 -5.602,-3.859 -20.863,-0.536 -25.749,2.379 -9.451,5.64 -10.499,-1.303 -15.63,-4.837 -12.924,-8.905 -22.863,-20.068 -42.824,-20.185 -26.117,-0.154 -45.645,24.29 -55.416,38.274 -4.431,6.342 -2.992,15.656 -14.015,10.675 -4.213,-1.904 -6.956,-1.94 -11.926,-1.969 -8.405,-0.049 -27.825,-2.662 -32.732,3.604 -2.247,2.869 -2.891,4.413 -2.999,5.152 -0.57,-0.578 -2.401,-1.387 -7.565,-1.417 -25.207,-0.149 -24.681,9.83 -37.647,22.137 -3.1,2.942 -4.028,-12.467 -5.489,-15.747 -3.472,-7.798 -12.019,-7.082 -22.284,-6.775 -11.11,0.332 -17.569,5.592 -29.333,5.522 -9.128,-0.053 -16.438,1.194 -25.285,2.594 -6.717,1.062 -20.331,-0.054 -25.754,3.223 -1.595,0.964 6.621,2.613 7.734,2.998 5.416,1.878 5.558,3.969 5.534,8.048 -0.082,13.937 1.163,11.314 -16.491,9.817 -30.555,-2.591 -54.483,4.953 -83.899,4.78 -12.7362,-0.075 -66.78954,-4.763 -66.86553,8.149 -0.01764,2.998 7.37197,4.768 7.8541,8.905 0.94217,8.086 0.82489,16.772 -4.17333,24.233 -4.03084,6.016 -13.06634,12.221 -21.64084,15.587 -18.6059,7.302 -43.0786,12.214 -64.5657,12.486 -4.9774,0.063 -31.1857,-0.446 -28.2147,-0.06 17.3647,2.251 34.494,1.996 52.3872,2.101 13.4565,0.079 28.3527,1.34 41.5489,-0.177 11.1916,-1.287 17.90528,-6.71 27.96451,-10.066 14.71369,-4.908 30.58669,-11.243 47.35299,-11.744 9.9055,-0.297 32.4011,-1.52 39.5044,4.767 12.914,11.43 -6.6764,28.058 -6.74,38.877 -0.0267,4.536 2.649,10.341 6.7391,13.961 0.5389,0.477 6.9698,-10.754 9.3749,-12.495 12.051,-8.719 40.774,11.51 48.274,16.21 34.435,21.577 31.682,-14.228 50.374,-24.488 9.555,-5.246 24.794,-9.71 36.961,-10.962 5.084,-0.523 9.811,0.369 14.579,-1.074 9.636,-2.918 15.236,-7.524 24.865,-10.295 3.11,-0.895 24.634,-4.223 23.251,0.559 -1.897,6.565 -6.78,12.356 -10.34,18.501 -6.094,10.515 -6.876,19.276 10.74,19.047 15.754,-0.205 30.765,-5.514 46.075,-5.424 9.157,0.054 12.747,6.374 20.875,9.193 4.622,1.602 8.974,-0.171 13.316,2.82 8.472,5.837 12.256,14.864 19.097,21.522 2.818,2.742 28.306,22.973 36.513,12.554 4.312,-5.474 10.796,-6.039 18.661,-9.804 12.743,-6.099 26.151,-12.013 39.48,-17.486 7.419,-3.045 19.432,-10.958 27.976,-11.963 8.589,-1.011 20.748,1.097 25.768,-5.649 7.071,-9.503 -8.256,-22.13 -13.002,-29.818 -3.012,-4.879 -15.601,-25.415 -3.86,-29.026 9.11,-2.801 19.676,-2.263 29.021,-5.208 16.489,-5.196 21.659,-11.117 22.464,-23.703 0.465,-7.28 2.81,-6.699 11.375,-9.847 13.371,-4.913 32.257,-16.596 47.388,-17.65 23.524,-1.639 47.841,-1.617 72.252,-1.473 l 1.944,0.012 c 32.679,0.196 55.859,0.335 86.165,-8.985 12.14,-3.733 42.794,-21.449 17.821,-24.996 -11.917,-1.693 -30.866,-2.854 -32.949,-12.323 -1.859,-8.451 -10.038,-25.764 -18.572,-31.643 -12.632,-8.703 -17.762,-13.369 -17.206,-26.679 l 0.005,-0.121 c 0.261,-6.268 0.994,-23.875 14.09,-24.053 8.68,-0.117 16.231,4.296 23.679,6.784 11.307,3.778 19.237,10.608 29.9,3.445 13.387,-8.992 24.102,-11.573 42.685,-8.713 16.499,2.539 8.987,13.169 -1.662,18.974 -18.051,9.839 -2.398,13.249 13.978,21.914 14.782,7.82 41.988,19.766 62.53,17.348 4.657,-0.549 5.308,-4.916 8.869,-5.432 5.244,-0.762 10.378,0.363 15.026,1.881 9.505,3.104 19.653,6.935 30.507,5.769 8.785,-0.944 3.944,-8.272 7.975,-11.66 2.724,-2.284 7.784,-8.133 9.054,-11.126 4.35,-10.183 23.33,-13.104 36.38,-16.238 14.88,-3.576 26.05,-7.862 41.9,-7.769 8.02,0.047 16.22,1.994 25.1,2.046 14.43,0.085 6.07,9.663 11.06,17.151 6.18,9.268 9.75,9.549 23.51,9.63 10.99,0.065 17.23,-5.918 26.72,-8.913 13.77,-4.347 11.53,8.539 14.02,14.004 3.64,7.945 18.95,23.397 33.25,14.328 6.79,-4.308 12.62,-4.796 14.17,-10.463 4.86,-17.765 23.35,-9.685 41.8,-16.207 8.58,-3.033 11.94,-3.304 23.58,-3.236 7.3,0.043 4.4,-9.633 4.42,-13.262 0.05,-8.785 2.36,-16.059 15.62,-19.841 15.57,-4.44 5.58,-12.909 14.08,-21.327 6.12,-6.064 13.89,-7.807 19.46,-14.545 z"
         fill="url(#paint10_radial)"
         id="path525"
         style="fill:url(#paint10_radial)" />
      <path
         d="m 1432.23,134.791 c 4.49,-6.032 9.19,-10.604 15.86,-15.465 -6.15,2.116 -10.21,6.754 -18.66,7.13 -16.36,0.728 -29.98,4.815 -47.04,4.714 -5.32,-0.031 -10.72,0.149 -16.03,-0.094 -5.81,-0.267 -0.2,-8.466 -2.93,-10.554 -0.09,-0.069 -10.34,3.596 -11.16,3.816 -3.05,0.821 -5.8,1.63 -9.11,1.61 -10.72,-0.063 -22.64,0.998 -33.01,-1.026 -5.99,-1.168 -13.83,-4.483 -14.62,-9.236 -0.56,-3.363 -14.72,-1.705 -18.2,-1.771 -16.25,-0.309 -19.12,-14.0891 -35.67,-9.268 -11.98,3.488 -42.63,11.281 -54.25,6.335 -5.84,-2.485 -5.51,-7.611 -11.64,-7.647 -10.59,-0.063 -14.69,5.685 -23.02,9.569 -2.6,1.212 -10.26,6.83 -11.86,6.863 -11.83,0.239 -23.76,-0.14 -35.6,-0.21 -15.3,-0.09 -30.04,-4.41 -45.07,-5.256 -19.1,-1.075 -1.4,-27.7574 -13.97,-26.6095 -8.96,0.8168 -17.08,1.4708 -26.37,1.4161 -9.06,-0.0533 -5.38,-9.0267 -5.36,-13.5261 0.06,-9.0549 11.31,-13.4754 12.23,-22.573 0.5,-5.0153 3.22,-41.636 -2.06,-42.067 -7.14,-0.5821 -20.9,26.0035 -24.63,29.8018 -16.214,16.4945 -25.687,-4.8912 -40.296,-10.2194 -31.246,-11.3955 -27.272,23.6783 -20.993,34.8144 5.102,9.0477 21.93,13.6975 21.867,24.3449 -0.015,2.6832 0.548,16.5578 -7.417,13.6358 -4.077,-1.496 -5.454,-6.5416 -8.644,-8.7392 -5.864,-4.0403 -11.831,5.178 -17.287,5.5362 -13.394,0.88 -21.044,1.865 -20.469,-7.9767 0.351,-6.0138 10.429,-27.0256 -4.723,-28.5881 -8.747,-0.9022 -16.536,0.3462 -18.98,-6.859 -2.092,-6.1657 -2.231,-4.9856 -9.733,-8.3759 -6.56,-2.9642 -5.394,-6.904 -5.366,-11.6775 0.026,-4.5486 -4.513,-3.2948 -8.389,-5.9648 -1.373,-0.9459 -1.201,-9.785 -3.209,-8.7072 -4.437,2.381 -18.24,10.5302 -23.942,5.0351 -4.357,-4.1985 -0.992,-16.178 -0.964,-20.89447 0.041,-7.042685 1.161,-14.52151 -0.009,-21.53583 -1.058,-6.3374 -8.417,4.0023 -8.723,4.6625 -3.949,8.52179 -11.679,22.6985 -25.018,26.2872 -8.65,2.3272 -8.062,-1.4323 -7.845,-5.96154 0.016,-0.34096 8.305,-29.74056 -2.324,-20.81006 -5.224,4.39028 -33.498,-3.5281 -34.192,-7.6879 -0.987,-5.9114 -0.255,-33.7205 -6.045,-34.8811 -22.827,-4.5766 -31.446,40.1533 -32.609,46.4844 -2.585,14.06755 5.903,32.9781 -4.48,45.5408 -3.011,3.6427 -7.765,2.3359 -13.465,2.4164 -6.875,0.097 -14.43,4.9044 -19.394,8.0636 l -0.219,0.1395 c -11.379,7.2391 -12.353,14.9007 -29.57,14.7993 -3.887,-0.0228 -16.787,1.4861 -16.97,-2.1333 -0.299,-5.8891 -0.004,-9.9711 -6.3,-14.6407 -9.124,-6.7675 -25.608,-11.8143 -36.718,-17.223 -10.866,-5.2895 -17.274,-8.0505 -30.658,-8.1292 -2.774,-0.0164 -16.063,-1.6505 -13.873,2.5063 0.745,1.4133 8.77,9.5992 3.198,10.6481 -7.697,1.4491 -56.693,4.9415 -48.991,13.4835 2.766,3.0669 7.167,12.9822 12.423,13.0131 l 31.656,0.1863 15.352,0.0904 c 2.039,0.012 7.032,-1.1066 6.113,0.1284 -1.698,2.2821 -3.037,3.0867 -3.161,6.1741 -0.218,5.4353 -1.571,8.3203 6.461,10.39 1.912,0.4927 35.499,6.6224 26.298,10.137 -5.059,1.9323 -3.192,3.4146 -1.122,5.9088 9.877,11.9005 5.465,21.3015 4.693,33.6715 -0.498,7.977 -15.55,10.672 -17.35,16.073 -3.208,9.63 -13.632,15.411 -19.026,24.012 -1.089,1.736 4.301,7.91 4.284,10.839 -0.03,5.128 -3.826,6.51 -10.281,8.861 l -0.37,0.134 c -7.606,2.772 37.521,8.954 40.697,10.684 10.283,5.601 3.911,28.041 3.857,37.272 -0.076,12.835 -0.72,27.311 -21.654,31.76 -6.52,1.386 -29.904,2.313 -29.867,-3.965 l 0.106,-18.023 c 0.032,-5.519 -3.306,-4.014 -6.747,-7.804 -9.112,-10.036 -69.065,17.331 -83.808,19.471 -5.347,0.777 -15.264,3.634 -18.518,6.916 -2.817,2.841 10.333,1.355 13.035,1.371 14.038,0.082 51.435,3.509 38.336,19.358 -4.104,4.965 -20.32,4.639 -20.851,10.691 -0.369,4.223 2.675,5.103 4.297,8.714 2.946,6.56 2.207,19.635 -0.834,26.152 -2.242,4.807 -7.45,8.78 -6.061,14.106 0.974,3.729 13.415,9.135 11.479,11.899 -2.008,2.866 -21.557,-1.398 -23.902,-1.805 -8.64,-1.5 -24.969,-6.43 -10.733,-0.063 15.182,6.79 29.569,12.559 48.158,12.669 10.345,0.061 11.13,-1.166 11.461,-8.251 0.414,-8.866 7.638,-19.404 12.39,-27.471 4.926,-8.364 8.903,-17.65 14.824,-25.608 8.225,-11.054 15.931,-4.375 27.839,2.197 7.655,4.225 47.112,27.16 57.112,14.94 3.023,-3.695 5.299,-11.885 12.839,-11.57 12.242,0.51 22.082,6.785 35.421,6.863 9.512,0.056 20.221,-0.808 29.616,0.359 11.988,1.49 31.452,12.139 43.855,5.065 5.125,-2.924 1.204,-19.984 1.227,-23.84 0.038,-6.461 -3.269,-12.782 7.693,-14.373 6.376,-0.926 21.083,-3.865 25.315,-7.523 5.033,-4.35 7.431,-19.398 2.861,-24.292 -10.584,-11.332 -25.467,-19.216 -20.589,-33.857 2.681,-8.046 7.449,-15.867 16.024,-21.627 6.894,-4.63 16.393,-7.297 26.129,-7.24 5.021,0.03 9.104,0.743 12.78,-1.589 7.193,-4.561 30.583,-6.399 33.098,-13.946 3.183,-9.555 13.087,-15.272 17.942,-24.388 8.317,-15.619 25.841,-14.196 46.797,-10.077 10.13,1.992 12.045,13.515 5.868,18.705 -6.444,5.415 -20.601,8.852 -29.955,10.915 -9.807,2.164 -3.822,3.004 -3.853,8.296 -0.036,6.09 -6.995,10.745 -14.752,13.408 -10.879,3.734 -49.898,16.478 -31.963,28.834 4.51,3.107 43.675,0.655 41.404,5.975 -1.555,3.643 -11.786,1.755 -12.126,5.844 -0.388,4.659 7.563,12.43 12.683,15.048 10.422,5.329 18.536,12.307 28.835,17.638 4.995,2.586 8.481,5.033 10.774,7.81 0.208,4.888 1.215,9.781 1.195,13.057 -0.028,4.878 2.246,4.881 2.448,-0.355 0.205,-5.331 -0.809,-9.269 -3.643,-12.702 -0.328,-7.731 1.343,-15.449 12.24,-16.732 6.298,-0.742 14.467,-0.648 20.391,-2.006 7.235,-1.659 10.713,-7.933 19.612,-8.018 7.68,-0.074 15.392,3.603 23.755,3.652 7.967,0.047 14.443,-2.564 20.683,-5.701 14.37,-7.224 -18.216,-12.254 -22.884,-12.705 -4.151,-0.401 -9.798,-5.111 -5.66,-7.89 2.429,-1.632 14.18,-0.286 17.12,-0.269 7.784,0.046 31.564,0.056 33.604,-7.381 1.01,-3.687 1.71,-10.813 -3.59,-13.146 -9.56,-4.204 -24.21,-2.102 -34.755,-4.826 -4.042,-1.044 -4.612,-8.859 -2.382,-10.921 4.734,-4.376 9.029,-15.29 15.447,-15.252 18.09,0.106 28.85,5.099 45.78,0.269 20.14,-5.742 45.31,-16.37 66.81,-16.244 10.95,0.065 25.81,-1.071 33.52,5.189 4.98,4.038 12.78,9.854 20.87,10.105 11.81,0.367 8.54,-9.566 18.91,-4.787 11.37,5.236 19.83,7.886 20.81,-3.298 0.24,-2.789 6.45,-4.838 8.6,-7.436 3.18,-3.844 0.29,-9.011 1.44,-13.209 2.91,-10.657 27.8,-7.622 39.03,-7.349 13.21,0.32 51.35,1.906 51.28,13.611 -0.06,9.968 -1.52,21.589 -18.62,24.477 -8.82,1.489 -19.94,0.252 -28.94,0.199 -4.48,-0.026 -13.24,1.586 -3.95,1.641 10.16,0.059 21.82,11.161 9.16,13.733 -4.46,0.905 -16.59,1.851 -16.61,5.448 -0.03,5.922 -1.7,6.849 -7.4,10.678 -6.7,4.5 -22.02,5.403 -30.44,0.653 -5.32,-3.005 -4.21,-7.512 -11.64,-7.555 -5.59,-0.033 -7.31,0.13 -11.69,1.964 -9.92,4.148 -18.4,2.783 -30.72,1.113 -13.73,-1.862 -26.64,-10.139 -40.69,-10.221 -13.63,-0.081 -13.53,5.461 -21.54,11.611 -9.34,7.175 -6.89,20.47 2.83,26.914 6.14,4.065 14.97,5.484 21.14,9.736 4.82,3.322 2.66,9.836 2.63,14.158 -0.05,9.006 -0.49,13.273 12.13,17.17 5.73,1.769 26.92,-2.579 26.87,4.687 -0.04,8.075 8.23,10.091 17.86,13.877 5.17,2.037 21.17,3.832 21.14,8.074 -0.03,6.352 0.73,11.286 3.57,17.397 5.1,10.959 17,9.686 30.54,5.171 2.35,-0.784 23.47,-12.07 18.28,-13.11 -6.33,-1.269 -18.61,2.709 -25.29,2.994 -16.18,0.691 -6.47,-6.254 -11.87,-13.287 -5.6,-7.278 -27.4,-7.963 -27.36,-15.966 0.03,-3.883 -4.14,-14.394 -11.04,-15.778 -8.94,-1.792 -22.71,-0.438 -27.41,-6.909 -7.13,-9.831 -12.66,-17.944 -12.6,-29.189 0.08,-13.449 9.91,-4.803 19.57,-1.086 14.59,5.609 11.73,19.344 26.49,25.019 15.1,5.81 12.39,-5.996 16.9,-9.791 2.11,-1.775 -0.41,-5.263 4.38,-6.166 4.99,-0.939 8.83,1.137 13.45,1.558 9.35,0.85 27.17,-4.197 34.64,-0.074 6.92,3.819 25.77,6.772 28.68,-1.957 2.41,-7.242 2.08,-16.69 2.72,-24.108 0.35,-3.903 3.67,-4.969 8.59,-4.94 5.03,0.029 4.9,-3.522 7.51,-5.779 6.38,-5.511 16.45,-3.949 23.15,-9.014 7.44,-5.627 -1.41,-26.628 13.61,-26.54 5.75,0.034 6.01,-4.318 8.6,-6.973 3.16,-3.253 9.29,-5.883 14.17,-7.866 10.04,-4.077 26.85,-6.497 38.49,-6.428 6.04,0.035 14.63,1.27 20.25,-0.251 4.91,-1.331 8.08,-6.641 10.24,-9.552 z"
         fill="url(#paint11_radial)"
         id="path527"
         style="fill:url(#paint11_radial)" />
      <path
         d="m 1452.78,109.698 c 6.71,9.244 29.6,13.013 42.84,13.247 0.03,-4.935 6.04,-4.296 11.7,-4.263 8.23,0.049 5.27,5.96 5.24,10.458 -0.04,8.195 22.16,-0.19 30.66,-0.14 10.82,0.064 18.01,1.609 27.69,3.131 7.37,1.158 12.2,4.231 20.61,4.372 9.55,0.161 19.71,0.754 28.78,-1.595 12.52,-3.243 1.49,7.147 -3.95,8.961 -7.14,2.383 -12.24,7.732 -19.98,9.347 -10.48,2.186 -26.32,0.996 -36.78,-1.019 -13.05,-2.514 -22.31,-5.906 -36.04,-5.987 -13.44,-0.079 -3.78,18.217 -14.72,17.159 -13.11,-1.267 -23.66,-2.947 -37.25,-3.027 -8.9,-0.052 -21.72,1.439 -30.18,-0.258 -2.27,-0.456 -4.81,-2.906 -7.88,-3.656 -6.76,-1.651 -12.6,-2.159 -19.67,-2.201 -11.41,-0.067 -17.38,2.564 -28.76,-1.613 -9.31,-3.414 -10.96,-8.727 -22.83,-8.797 -21.94,-0.129 -6.03,11.881 -4.95,20.345 0.45,3.511 2.86,22.779 -4.73,22.912 -14.9,0.262 -28.81,-8.754 -34.33,-17.447 -7.79,-12.276 9.31,-26.857 -11.59,-34.479 -9.97,-3.637 -15.42,-16.328 -27.54,-7.702 -11.98,8.519 -4.93,25.959 -26.68,25.831 -22.48,-0.132 -17.95,-15.762 -17.89,-26.094 0.04,-6.522 3.36,-14.266 -8.44,-8.391 -8.32,4.146 -14.9,7.048 -14.94,14.35 -0.04,6.934 1.06,14.393 -0.24,21.255 -1.23,6.486 -5.84,5.821 -13.71,5.774 -9.99,-0.058 -6.28,10.505 -9.17,14.384 -2.27,3.053 -16.7,1.535 -21.7,1.316 -7.06,-0.308 -12.72,-3.145 -12.69,-8.015 0.05,-8.018 6.49,-6.608 13.74,-10.748 3.23,-1.841 21.46,-8.421 6.44,-11.432 -10.86,-2.176 -23.88,1.223 -34.91,1.158 -18.95,-0.112 -29.12,-1.957 -47.65,3.329 -7.55,2.153 -10.32,9.671 -16.58,11.052 -5.56,1.227 -27.14,3.8 -27.1,-1.924 0.09,-16.53 -28.21,-0.166 -36.08,-0.213 -13.187,-0.077 -6.65,4.82 -11.847,9.315 -4.626,3.998 -16.492,2.069 -23.24,2.029 -9.148,-0.054 -21.535,-0.905 -16.338,-8.759 3.134,-4.735 -1.818,-14.507 -3.188,-19.269 -6.069,-21.103 -26.699,10.431 -35.551,10.378 -8.466,-0.049 5.349,-8.631 -5.726,-8.696 -16.014,-0.094 -18.696,-0.412 -23.753,-10.888 -3.05,-6.319 -13.932,-7.404 -22.852,-3.824 -6.694,2.686 -24.928,19.887 -29.788,12.819 -5.369,-7.81 -3.673,-16.864 -3.624,-25.208 0.042,-7.108 -7.96,-5.628 -14.843,-2.334 -4.925,2.358 -12.372,1.487 -18.165,1.337 -4.836,-0.125 -2.497,-3.429 -3.504,-5.795 -3.045,-7.161 -18.945,-13.1062 -29.163,-13.1664 -4.74,-0.0279 -5.948,2.8526 -10.746,2.8244 -5.492,-0.0323 -8.912,-1.1361 -13.542,-2.9673 -6.093,-2.41 -11.937,1.6116 -16.067,5.3603 -8.235,7.474 -14.272,9.143 -24.189,3.066 -5.685,-3.484 -0.285,-12.9964 7.269,-12.9519 12.799,0.0753 17.873,-17.1234 6.492,-21.298 -10.825,-3.9707 -28.59,2.8527 -38.884,-4.2395 -4.462,-3.0735 -0.237,-10.2569 2.905,-12.8969 3.073,-2.582 21.616,-0.5947 26.651,-0.5651 11.044,0.065 11.568,-2.2345 11.61,-9.3966 0.043,-7.3705 7.502,-11.6811 19.172,-12.0793 4.704,-0.1606 5.746,-2.9381 10.163,-3.9508 4.536,-1.0401 11.126,-0.3967 15.801,-0.2278 17.769,0.6419 10.56,6.6049 15.364,13.8868 2.596,3.9351 10.081,17.6706 18.437,12.6215 7.357,-4.445 13.416,-4.1819 16.572,-11.0519 1.944,-4.2302 5.051,-7.9112 11.719,-7.872 17.271,0.1017 18.094,-9.2102 18.151,-18.8231 0.06,-10.26384 -8.313,-5.8398 -17.627,-10.13014 -1.202,-0.55387 13.834,-5.19262 14.652,-5.28794 4.009,-0.467021 8.421,-0.850653 11.548,1.19092 9.625,6.28339 10.66,12.86046 16.387,20.30976 5.238,6.812 31.68,-13.73146 36.427,1.0967 1.436,4.4858 -4.844,17.8587 4.257,17.9122 3.847,0.0227 27.231,-1.228 21.676,3.3361 -8.71,7.1558 -19.201,13.4239 -28.068,21.0106 -1.478,1.2647 -6.803,11.6606 -2.292,8.8098 3.288,-2.0781 6.053,-4.6165 10.643,-5.3918 27.75,-4.6861 16.898,13.6925 16.832,24.9647 -0.082,13.9817 1.374,7.0527 2.135,-2.073 0.217,-2.6074 15.954,-1.6822 19.113,-2.1334 12.202,-1.7425 14.881,-4.1667 14.931,-12.6657 0.05,-8.5966 -4.151,-15.9112 -4.102,-24.3283 0.056,-9.4168 2.44,-8.3276 14.434,-8.257 9.385,0.0552 8.886,0.2204 13.234,-4.8952 4.158,-4.8908 19.444,-0.0968 24.564,-6.4328 5.81,-7.1901 1.22,-11.5433 -8.42,-11.6001 -9.165,-0.0539 -8.616,3.1988 -15.128,5.6863 -9.055,3.4587 -17.454,6.9324 -26.892,1.6063 -3.11,-1.7549 -14.812,-0.2637 -18.627,-0.4304 -7.847,-0.3429 2.221,-10.8671 5.259,-12.1612 5.922,-2.5222 12.058,-4.3359 18.256,-6.1678 l 1.001,-0.2962 c 6.506,-1.92538 1.992,-10.474779 4.919,-14.40917 3.191,-4.28808 11.193,-2.82174 17.467,-2.78481 11.845,0.0697 23.775,0.43801 35.605,0.20956 5.67,-0.10948 5.08,-12.53088 10.67,-9.72298 5.63,2.8279 16.09,0.7554 18.65,-3.179 4.55,-6.9934 10,-3.0485 17.94,-2.7018 8.7,0.3804 10.61,-0.7637 10.57,5.8375 -0.03,6.3236 -0.38,8.66058 9.5,8.71874 8.5,0.05003 13.43,-1.60399 13.77,4.7333 0.21,3.914087 18.46,8.45067 24.36,8.48535 10.76,0.06333 12.35,0.91407 9.03,7.59301 -1.44,2.9062 -2.46,5.8304 -4.29,8.6376 -2.62,3.9995 -9.11,1.7413 -13.93,2.8056 -9.64,2.1249 -17.71,9.0863 -27.19,11.7915 -5.96,1.6979 -18.45,3.3388 -22.33,7.2481 -5.78,5.8336 -19.35,7.0975 -16.48,15.5443 2.08,6.1226 3.15,12.143 5.32,18.159 2.61,7.2494 6.06,18.509 18.26,21.6042 8.24,2.0902 22.72,0.2942 31.13,0.3437 19.92,0.1172 9.72,-23.2209 23.4,-30.1021 14.74,-7.4091 42.63,5.1449 54.15,-4.8148 8.63,-7.4602 28.9,-20.5119 39.66,-7.7075 4.43,5.2627 15.45,4.2943 19.64,8.7784 6.73,7.2016 13.34,7.2975 25.19,7.3673 l 22.52,0.1325 c 7.01,0.0413 12.14,2.9591 18.02,2.9937 11.87,0.0698 23.26,4.9116 34.99,4.5374 3.92,-0.125 5.87,-2.7408 10.16,-2.8279 2.98,-0.0603 5.98,0.0353 8.96,0.0528 10.88,0.064 22.44,1.5759 33.83,1.6429 14.94,0.0879 13.63,12.4137 18.16,19.5181 6.37,9.9787 24.88,3.8667 30.12,11.0857 z"
         fill="url(#paint12_radial)"
         id="path529"
         style="fill:url(#paint12_radial)" />
      <path
         d="m 1329.47,49.6461 c -3.95,-12.3393 8.49,-18.0505 8.96,-29.19 8.02,11.0395 11.75,34.0318 11.68,46.812 -0.04,6.4904 -4.56,16.4504 -8.43,22.306 -3.44,5.1983 3.71,6.9454 5.08,11.2079 1,3.131 0.12,6.964 0.1,10.162 -0.05,8.249 6.94,43.736 -6.23,43.658 -17.31,-0.102 -7.86,-9.912 -18.49,-15.916 -7.53,-4.247 -31.27,4.968 -32.16,-6.737 -0.73,-9.595 -2.09,-13.371 -8.84,-21.505 -10.21,-12.3103 -14.44,14.396 -15.19,16.169 -0.71,1.641 -9.23,2.932 -11.15,5.128 -2.75,3.134 -5.37,7.627 -6.54,11.14 -1.86,5.566 -0.13,10.89 -11.52,11.11 -5.56,0.107 -18.34,1.293 -21.23,-3.174 -3.05,-4.732 -2.45,-23.666 2.82,-27.419 9.13,-6.495 7.94,-20.277 -6.52,-20.362 -13.14,-0.077 -22.72,4.174 -26.46,12.941 -3.68,8.622 -7.29,15.028 -18.05,21.346 -7.59,4.458 -46.19,7.886 -29.72,1.406 8.37,-3.293 31.8,-21.716 9.09,-21.85 -9.26,-0.055 -31.98,-2.808 -38.85,1.804 -7.84,5.272 -11.88,20.799 -23.69,21.877 -5.55,0.506 -3.38,-13.033 -3.23,-15.487 0.42,-6.754 4.64,-9.227 -2.89,-15.711 -3.93,-3.376 -9.02,1.507 -11.31,3.433 -4.39,3.688 1.81,5.656 -8.17,5.597 -19.13,-0.112 -31.04,9.944 -39.78,20.09 -5.61,6.514 -23.872,3.924 -33.548,3.867 -15.677,-0.093 -18.919,12.082 -31.605,12.008 -16.418,-0.097 -25.244,2.945 -25.172,-9.294 0.016,-2.828 -1.947,-10.749 0.739,-12.754 4.069,-3.039 5.649,-1.096 5.352,-6.969 -0.882,-17.413 -77.185,5.796 -74.542,-24.375 0.544,-6.2162 34.614,2.804 38.87,-5.755 1.995,-4.0123 3.023,-6.1263 3.05,-10.7082 0.013,-2.218 -1.609,-9.1611 3.045,-9.6921 2.271,-0.2591 4.583,0.5503 5.981,-1.0938 2.606,-3.0653 2.767,-6.1718 6.689,-8.5416 5.29,-3.1962 6.788,0.372 4.626,3.6403 -7.638,11.5419 9.894,11.7874 21.503,12.3204 0.229,0.0106 10.492,20.394 14.798,23.572 9.368,6.913 5.266,4.999 14.908,5.055 5.338,0.032 10.636,2.095 16.584,2.13 22.392,0.132 15.412,-2.832 19.512,-15.1273 1.04,-3.1295 9.97,-9.0916 5.22,-12.7277 -4.98,-3.8041 -8.29,-1.6848 -8.26,-7.7263 0.05,-8.8059 4.21,-22.4009 -0.48,-30.4876 -1.09,-1.8666 -9.84,5.8861 -10.661,6.26 -9.48,4.3177 -8.625,-18.2404 -9.547,-13.3792 -1.564,8.2349 -30.443,3.7382 -32.677,-3.2408 C 950.873,28.3989 940.496,23.9238 938.306,17.085 934.173,4.17595 952.632,11.5169 953.143,5.99452 954.404,-7.66235 951.09,-9.14775 970.13,-4.0671 c 23.054,6.15146 53.48,12.03569 71.05,-2.06581 18.02,-14.46939 18.6,-8.82009 32.19,0.18949 9.8,6.49162 20.8,2.57759 29.16,9.76865 7.9,6.79817 23.94,4.16883 20.64,17.28327 -1.43,5.6977 -19.83,6.5452 -25.45,10.1248 -4.89,3.1083 -7.02,7.3578 -12.68,10.087 -6.97,3.3677 -24.65,16.0152 -24.67,19.7263 -0.03,5.0544 1.05,20.7025 10.15,22.5282 0.83,0.1666 9.55,-1.6374 12.13,-1.6222 5.44,0.032 10.99,0.2821 16.43,0.0967 5.07,-0.1732 5.73,-5.8374 10.49,-5.8094 4.31,0.0253 18.16,26.1181 22.49,13.1166 0.7,-2.0983 2.76,-9.0118 5.87,-9.1109 8.18,-0.261 11.94,1.288 11.97,-5.0103 l 0.13,-21.3386 c 0.04,-7.4665 -4.46,-22.7243 5.47,-27.5171 7.54,-3.6374 32.96,-5.707 40.67,-1.5671 10.06,5.3967 -8.52,9.3051 -12.5,10.088 -11.83,2.3269 -6.65,1.9264 -6.69,8.9931 -0.03,3.5355 4.88,9.126 11.25,5.7116 4.49,-2.4088 2.03,-4.6956 4.36,-7.652 2.44,-3.1013 14.39,-2.6527 18.6,-1.8099 3.71,0.7448 -1.37,6.1613 -1.38,8.0082 -0.05,8.9488 11.55,6.165 22.37,6.2287 13.67,0.0804 4.87,10.7602 7.53,17.2061 2.97,7.1912 23.87,9.8849 29.03,3.3322 3.98,-5.0597 25.53,0.1503 32.86,0.1934 6.43,0.0379 11.2,0.2581 16.94,-1.9326 3.72,-1.4224 3.27,-7.3981 6.35,-7.979 12.16,-2.2892 6.77,-8.7046 4.58,-15.5542 z"
         fill="url(#paint13_radial)"
         id="path531"
         style="fill:url(#paint13_radial)" />
      <path
         d="m 804.065,195.479 c 18.758,-8.525 29.851,-20.74 56.3,-22.478 -0.053,9.048 14.789,4.468 20.565,11.429 4.608,5.551 10.344,-4.678 10.357,-6.86 0.045,-7.586 28.038,1.913 32.08,2.723 10.283,2.062 18.032,7.045 29.187,7.287 1.418,0.031 2.627,0.086 3.587,0.144 3.13,0.19 3.604,0.42 0,0 -0.532,-0.062 -1.153,-0.138 -1.867,-0.231 -12.705,-1.647 -15.13,-12.293 -20.233,-19.322 -2.422,-3.336 -0.143,-5.264 -6.56,-5.302 -9.41,-0.055 -17.839,-0.767 -27.069,-1.914 -13.665,-1.698 -23.169,-5.4 -37.222,-5.482 -11.27,-0.067 -17.389,5.161 -29.833,5.088 -20.895,-0.123 -38.885,-3.652 -48.355,11.607 -3.168,5.105 -18.965,0.531 -25.232,2.386 -8.055,2.384 -11.337,7.399 -17.542,10.424 -8.298,4.045 -1.331,13.242 -8.403,15.741 -11.169,3.949 -10.344,4.794 -10.398,13.976 -0.077,12.949 -9.5,51.082 -10.541,38.148 -0.543,-6.739 2.66,-15.36 -0.015,-21.835 -0.91,-2.203 -6.537,-0.078 -8.149,-3.167 -1.48,-2.838 -3.628,-6.478 -4.386,-9.383 -1.161,-4.447 -8.07,-10.645 -14.394,-13.147 -8.329,-3.294 -18.507,-10.079 -27.161,-10.784 -12.502,-1.019 -21.476,-2.216 -31.916,-6.232 -8.574,-3.298 -6.4,-8.094 -6.363,-14.268 l 0.001,-0.265 c 0.059,-9.906 0.085,-14.216 -6.458,-22.583 -4.533,-5.797 -9.164,-12.79 -11.207,-19.171 -2.75,-8.592 1.511,9.289 -0.793,13.155 -3.793,6.363 1.252,17.711 -5.866,22.774 -4.929,3.507 -29.973,6.429 -22.712,12.539 5.671,4.772 9.552,11.799 13.94,17.237 5.676,7.035 21.598,1.599 29.769,5.829 5.525,2.86 9.039,11.775 16.55,11.989 l 1.011,0.029 c 17.645,0.502 22.113,0.629 32.467,8.551 8.353,6.392 9.669,12.537 9.619,21.112 -0.044,7.444 -17.352,23.473 -6.487,30.958 3.901,2.688 15.31,3.892 20.462,4.702 6.552,1.03 27.869,15.858 15.382,15.784 -4.506,-0.026 -19.044,-1.674 -21.927,0.748 -1.688,1.419 -10.46,10.983 -11.815,11.238 -2.542,0.479 -20.321,-1.421 -21.764,-2.662 -3.576,-3.078 -9.425,-7.138 -14.128,-9.734 -20.11,-11.098 -25.817,12.747 -32.922,18.717 -3.854,3.238 -7.223,8.536 -14.955,9.075 -6.207,0.432 -17.706,0.84 -18.084,5.157 -0.509,5.81 -4.98,8.743 -12.946,8.696 -8,-0.047 -11.291,5.198 -20.664,5.142 -6.458,-0.038 -22.712,-4.747 -27.212,-1.914 -4.198,2.642 6.187,15.739 6.477,19.338 0.328,4.072 -0.343,5.273 -5.202,7.377 -5.032,2.18 -1.416,7.693 -2.786,10.901 -1.765,4.134 -17.116,11.402 -23.279,11.365 -5.8,-0.034 -10.107,0.156 -15.323,-1.455 -6.337,-1.956 -4.508,-4.479 -8.978,-8.24 -5.774,-4.859 -3.502,-10.352 -3.772,-16.398 -0.141,-3.139 -8.148,-2.678 -11.291,-4.843 -2.78,-1.915 -1.335,-5.482 -1.53,-7.905 -0.232,-2.879 -6.522,-1.163 -7.568,-4.431 -1.084,-3.387 2.817,-4.004 -0.125,-3.022 -3.085,1.029 -8.242,0.341 -11.608,0.322 -17.476,-0.103 -9.121,17.036 -11.888,23.519 -2.08,4.872 -16.156,6.696 -17.83,10.617 -5.684,13.315 28.368,17.665 22.323,29.374 -7.798,15.105 -49.178,2.169 -58.716,-5.219 -2.801,-2.17 -2.165,-3.855 -6.565,-4.425 -3.679,-0.478 -8.679,-1.607 -10.867,-3.866 -3.342,-3.451 -0.487,-14.489 -0.461,-18.913 0.061,-10.479 4.02,-21.014 -7.572,-28.117 -4.766,-2.921 -17.993,-10.371 -18.048,-0.984 -0.039,6.664 17.259,12.014 8.77,19.352 -14.622,12.638 -6.471,28.293 -6.563,43.825 -0.064,10.857 13.115,14.19 28.128,16.834 9.897,1.743 14.826,13.322 6.201,17.582 -2.554,1.261 -15.77,3.731 -8.779,6.577 3.71,1.51 7.109,3.94 11.583,3.967 l 27.079,0.159 c 12.475,0.074 5.066,7.249 12.248,12.744 3.554,2.72 10.197,8.453 10.819,11.956 0.328,1.847 2.866,12.21 5.086,12.311 14.173,0.651 12.052,-10.147 20.694,-10.405 5.778,-0.173 27.087,-1.554 30.365,1.933 6.825,7.261 -18.116,10.658 -22.711,12.148 -22.744,7.379 22.235,3.07 23.129,14.173 0.633,7.866 -4.034,11.822 -13.566,16.491 -19.336,9.471 8.635,8.745 17.99,10.828 20.849,4.642 -31.398,10.462 -26.435,12.029 13.403,4.231 45.918,-1.866 54.835,7.341 4.37,4.512 21.051,1.982 21,10.651 -0.024,4.066 -2.854,12.399 3.933,13.28 6.44,0.835 43.089,0.458 44.821,4.65 3.784,9.161 -8.638,9.457 -18.268,12.077 -4.449,1.21 -21.939,1.937 -22.961,6.005 -0.839,3.338 -0.043,7.236 -0.062,10.625 -0.002,0.275 -0.006,0.524 -0.013,0.751 -0.082,2.901 -0.505,1.931 0,0 0.597,-2.283 2.492,-5.908 7.781,-6.067 11.844,-0.354 21.323,-6.845 33.004,-8.188 12.133,-1.395 25.395,-1.995 37.695,-1.923 10.065,0.059 57.739,4.913 64.342,-1.376 1.863,-1.774 -20.906,-8.26 -22.586,-9.003 -6.448,-2.853 -9.579,-5.388 -9.108,-10.483 0.529,-5.725 29.552,-3.357 35.001,-6.813 7.153,-4.536 -21.435,-0.674 -28.338,-5.43 -5.714,-3.937 -16.211,-10.623 -24.582,-10.672 -10.499,-0.062 -20.522,8.835 -30.443,11.323 -9.36,2.347 -29.691,2.263 -37.957,-2.173 -5.358,-2.875 -10.559,-13.587 -4.913,-17.379 7.894,-5.303 34.661,-6.53 11.391,-12.215 -11.935,-2.916 -25.894,-4.637 -38.515,-4.711 -17.573,-0.103 -12.856,-6.709 -12.796,-16.938 0.078,-13.258 2.85,-26.368 -4.932,-38.435 -4.735,-7.341 -8.262,-6.189 -19.45,-6.255 -20.644,-0.122 -41.299,-2.263 -58.974,-10.095 -5.547,-2.458 -13.76,-5.92 -14.263,-11.001 -0.044,-0.441 0.776,-1.854 1.101,-2.83 17.237,1.731 37.616,4.227 51.927,0.608 5.535,-1.4 3.747,-7.92 5.222,-10.887 3.758,-7.555 24.728,-4.45 32.1,-0.785 8.988,4.468 11.513,5.331 23.181,5.4 3.916,0.023 26.38,-0.194 25.225,-1.216 -6.436,-5.696 -13.848,-6.195 -20.57,-10.649 -6.7,-4.439 -19.392,-11.946 -14.212,-19.774 6.569,-9.927 21.841,-1.895 32.424,-7.217 2.765,-1.39 2.81,-7.324 5.786,-9.323 2.65,-1.78 11.558,-0.589 12.773,-3.434 2.046,-4.792 -5.196,-24.054 5.593,-25.213 9.775,-1.051 17.291,4.869 26.917,3.472 16.764,-2.433 9.113,-14.68 9.155,-21.78 0.049,-8.355 11.015,-4.578 19.236,-6.126 7.51,-1.413 1.561,-11.831 15.965,-10.238 10.239,1.133 29.762,7.314 37.249,0.707 5.233,-4.618 6.742,-7.564 15.376,-7.513 4.823,0.028 7.602,0.327 10.475,-2.57 5.386,-5.432 37.368,-3.003 44.573,-1.98 3.976,0.565 9.633,5.842 13.297,4.757 8.723,-2.581 6.535,-15.661 12.299,-20.397 5.836,-4.794 22.109,-4.272 14.413,-14.342 -2.635,-3.447 -9.737,-0.996 -9.707,-6.198 0.02,-3.244 -4.748,-2.837 -8.284,-4.435 -7.487,-3.383 -6.023,-4.396 -7.393,-9.888 -1.952,-7.831 -12.193,-13.271 -14.488,-21.433 -2.87,-10.204 -0.753,-21.765 12.487,-27.999 8.65,-4.073 20.883,-2.885 29.268,-6.456 6.613,-2.817 10.743,-9.73 17.843,-12.957 z"
         fill="url(#paint14_radial)"
         id="path533"
         style="fill:url(#paint14_radial)" />
    </g>
    <path
       d="M 4,900 H 1406 L 732.375,718.966 C 193.475,574.14 22.2501,658.622 4,718.966 Z"
       fill="url(#paint15_linear)"
       id="path537"
       style="fill:url(#paint15_linear)" />
    <path
       d="M 1408.92,-2.99988 6.9208,-3 680.546,178.034 c 538.904,144.827 710.124,60.344 728.374,0 z"
       fill="url(#paint16_linear)"
       id="path539"
       style="fill:url(#paint16_linear)" />
    <g
       opacity="0.5"
       id="g731">
      <path
         d="m 179.218,549.395 5.298,2.521 5.312,-2.491 -2.454,5.442 2.425,5.456 -5.299,-2.52 -5.312,2.49 2.454,-5.442 z"
         fill="#abebff"
         id="path541" />
      <ellipse
         rx="4.5386901"
         ry="4.5520601"
         transform="matrix(0.736047,-0.67693,0.657133,0.753775,216.326,572.427)"
         fill="#d1efff"
         id="ellipse543"
         cx="0"
         cy="0" />
      <path
         d="m 263.021,567.954 -2.244,3.408 1.059,3.969 -3.319,-2.305 -3.863,1.087 2.244,-3.408 -1.058,-3.968 3.318,2.304 z"
         fill="#88accd"
         id="path545" />
      <ellipse
         rx="2.1981599"
         ry="2.1736801"
         transform="matrix(0.528926,0.848668,-0.83557,0.549383,236.93,600.31)"
         fill="#d1efff"
         id="ellipse547"
         cx="0"
         cy="0" />
      <path
         d="m 199.535,640.68 -7.914,1.932 -3.724,7.428 -1.881,-8.129 -7.232,-3.825 7.914,-1.931 3.724,-7.428 1.881,8.128 z"
         fill="#7fbddf"
         id="path549" />
      <path
         d="m 291.119,642.335 -4.867,1.188 -2.29,4.568 -1.157,-4.998 -4.447,-2.353 4.867,-1.188 2.29,-4.568 1.157,4.999 z"
         fill="#b0e0ef"
         id="path551" />
      <ellipse
         rx="6.2947898"
         ry="6.3688798"
         transform="matrix(0.841358,0.540479,-0.520094,0.854109,244.263,680.015)"
         fill="#a4d5e4"
         id="ellipse553"
         cx="0"
         cy="0" />
      <path
         d="m 201.882,729.292 -5.309,-1.765 -4.761,2.991 1.719,-5.453 -2.912,-4.889 5.309,1.765 4.76,-2.991 -1.718,5.453 z"
         fill="#8bb4cb"
         id="path555" />
      <ellipse
         rx="3.0504701"
         ry="3.0398099"
         transform="matrix(-0.649211,0.760608,-0.743134,-0.669142,149.627,705.957)"
         fill="#d1efff"
         id="ellipse557"
         cx="0"
         cy="0" />
      <rect
         width="7.2984099"
         height="7.49505"
         transform="matrix(0.998398,0.0565825,-0.0536438,0.99856,144.529,538.511)"
         fill="#7acbed"
         id="rect559"
         x="0"
         y="0" />
      <rect
         width="7.29844"
         height="7.49505"
         transform="matrix(0.998398,0.0565823,-0.053644,0.99856,142.555,752.585)"
         fill="#7bf6f6"
         id="rect561"
         x="0"
         y="0" />
      <rect
         width="7.29844"
         height="7.49505"
         transform="matrix(0.998398,0.0565823,-0.053644,0.99856,260.09,712.494)"
         fill="#7481b0"
         id="rect563"
         x="0"
         y="0" />
      <path
         d="m 466.962,633.456 -0.197,5.995 4.302,4.055 -5.836,-0.203 -3.949,4.419 0.197,-5.994 -4.301,-4.056 5.836,0.203 z"
         fill="#abebff"
         id="path565" />
      <ellipse
         rx="4.5065498"
         ry="4.5838699"
         transform="matrix(0.900005,0.435879,-0.417219,0.908806,460.756,677.53)"
         fill="#7898ef"
         id="ellipse567"
         cx="0"
         cy="0" />
      <path
         d="m 482.947,719.965 -3.93,-0.796 -3.146,2.546 0.775,-4.036 -2.479,-3.232 3.93,0.796 3.147,-2.546 -0.776,4.037 z"
         fill="#88accd"
         id="path569" />
      <ellipse
         rx="2.19643"
         ry="2.17541"
         transform="matrix(-0.555579,0.831464,-0.817343,-0.576151,443.773,707.879)"
         fill="#d1efff"
         id="ellipse571"
         cx="0"
         cy="0" />
      <path
         d="m 393.009,688.218 -4.813,-6.735 -8.111,-0.631 6.557,-4.944 0.615,-8.331 4.813,6.735 8.111,0.631 -6.557,4.944 z"
         fill="#7fbddf"
         id="path573" />
      <path
         d="m 427.182,775.508 -2.96,-4.142 -4.989,-0.389 4.033,-3.04 0.378,-5.123 2.96,4.142 4.988,0.388 -4.032,3.04 z"
         fill="#f1fbff"
         id="path575" />
      <path
         d="m 406.496,635.014 -4.5,-2.245 -4.588,2.046 2.186,-4.621 -1.993,-4.713 4.5,2.245 4.588,-2.047 -2.186,4.622 z"
         fill="#f1fbff"
         id="path577" />
      <ellipse
         rx="6.41184"
         ry="6.25103"
         transform="matrix(-0.154258,0.988031,-0.986706,-0.162515,375.148,745.849)"
         fill="#98ecff"
         id="ellipse579"
         cx="0"
         cy="0" />
      <path
         d="m 314.456,724.938 -0.484,-5.71 -4.535,-3.339 5.559,-0.497 3.251,-4.658 0.484,5.709 4.535,3.339 -5.559,0.498 z"
         fill="#8bb4cb"
         id="path581" />
      <ellipse
         rx="3.0123"
         ry="3.0776401"
         transform="matrix(-0.946708,-0.322093,0.306934,-0.951731,315.039,666.417)"
         fill="#d1efff"
         id="ellipse583"
         cx="0"
         cy="0" />
      <rect
         width="7.4732699"
         height="7.3206701"
         transform="matrix(0.33006,0.94396,-0.938208,0.346073,463.217,596.401)"
         fill="#4793bd"
         id="rect585"
         x="0"
         y="0" />
      <rect
         width="7.4732699"
         height="7.3207002"
         transform="matrix(0.330061,0.94396,-0.938208,0.346071,251.551,777.71)"
         fill="#b0b1c1"
         id="rect587"
         x="0"
         y="0" />
      <path
         d="m 96.2812,679.371 -0.5634,-4.074 -3.3773,-2.212 3.9659,-0.579 2.1538,-3.469 0.5634,4.074 3.3774,2.212 -3.9659,0.579 z"
         fill="#88accd"
         id="path589" />
      <ellipse
         rx="2.16061"
         ry="2.211"
         transform="matrix(-0.963097,-0.269154,0.256079,-0.966656,94.482,637.399)"
         fill="#d1efff"
         id="ellipse591"
         cx="0"
         cy="0" />
      <path
         d="m 95.8259,581.693 4.6051,-6.887 -2.0931,-8.074 6.7051,4.73 7.861,-2.15 -4.605,6.888 2.093,8.073 -6.706,-4.73 z"
         fill="#7fbddf"
         id="path593" />
      <path
         d="m 26.8483,643.596 2.8319,-4.236 -1.287,-4.965 4.1238,2.909 4.8341,-1.322 -2.8319,4.235 1.287,4.966 -4.1238,-2.909 z"
         fill="#f1fbff"
         id="path595" />
      <path
         d="m 149.177,577.239 0.581,-5.103 -3.393,-3.776 4.968,0.597 3.676,-3.485 -0.581,5.103 3.393,3.775 -4.968,-0.597 z"
         fill="#f1fbff"
         id="path597" />
      <ellipse
         rx="6.2520299"
         ry="6.4108801"
         transform="matrix(-0.983574,0.180505,-0.171386,-0.985204,36.9647,583.363)"
         fill="#88a6b3"
         id="ellipse599"
         cx="0"
         cy="0" />
      <path
         d="m 36.1854,517.619 5.089,-2.352 1.5748,-5.498 2.2892,5.227 5.3533,1.617 -5.089,2.352 -1.5748,5.498 -2.2892,-5.227 z"
         fill="#8bb4cb"
         id="path601" />
      <ellipse
         rx="3.0855701"
         ry="3.00418"
         transform="matrix(-0.0155244,-0.99988,0.999866,-0.0163772,90.1721,498.898)"
         fill="#d1efff"
         id="ellipse603"
         cx="0"
         cy="0" />
      <rect
         width="7.37677"
         height="7.4179201"
         transform="matrix(-0.768876,0.639398,-0.619072,-0.785334,203.363,619.519)"
         fill="#91d7ff"
         id="rect605"
         x="0"
         y="0" />
      <ellipse
         rx="2.21419"
         ry="2.15734"
         transform="matrix(-0.114031,-0.993477,0.992749,-0.120208,97.6778,449.134)"
         fill="#d1efff"
         id="ellipse607"
         cx="0"
         cy="0" />
      <path
         d="m 148.487,429.597 7.94,1.813 6.509,-5.011 -1.765,8.156 4.879,6.685 -7.941,-1.813 -6.509,5.011 1.765,-8.156 z"
         fill="#7fbddf"
         id="path609" />
      <path
         d="m 66.8067,387.017 4.8833,1.115 4.0029,-3.082 -1.0856,5.016 3.0004,4.111 -4.8834,-1.115 -4.0029,3.082 1.0857,-5.016 z"
         fill="#f1fbff"
         id="path611" />
      <path
         d="m 172.447,478.76 4.825,-1.354 2.141,-4.644 1.318,4.957 4.521,2.199 -4.825,1.354 -2.141,4.643 -1.318,-4.956 z"
         fill="#f1fbff"
         id="path613" />
      <path
         d="m 549.352,483.17 -4.875,6.688 1.769,8.155 -6.511,-5.008 -7.94,1.818 4.876,-6.688 -1.77,-8.155 6.512,5.008 z"
         fill="#7fbddf"
         id="path615" />
      <path
         d="m 620.737,424.216 -2.998,4.113 1.088,5.015 -4.004,-3.08 -4.883,1.118 2.998,-4.113 -1.088,-5.015 4.005,3.08 z"
         fill="#f1fbff"
         id="path617" />
      <path
         d="m 495.868,485.379 -0.784,5.075 3.24,3.914 -4.941,-0.805 -3.811,3.328 0.784,-5.074 -3.24,-3.915 4.94,0.805 z"
         fill="#f1fbff"
         id="path619" />
      <ellipse
         rx="6.2498698"
         ry="6.4129601"
         transform="matrix(0.990281,-0.139082,0.131968,0.991254,608.231,483.973)"
         fill="#88a6b3"
         id="ellipse621"
         cx="0"
         cy="0" />
      <path
         d="m 606.391,549.696 -5.178,2.135 -1.793,5.428 -2.079,-5.319 -5.284,-1.841 5.178,-2.135 1.792,-5.428 2.08,5.319 z"
         fill="#8bb4cb"
         id="path623" />
      <ellipse
         rx="3.0855401"
         ry="3.00421"
         transform="matrix(-0.0243054,0.999705,-0.999671,-0.02564,551.704,566.133)"
         fill="#d1efff"
         id="ellipse625"
         cx="0"
         cy="0" />
      <rect
         width="7.3688998"
         height="7.4257398"
         transform="matrix(0.794539,-0.607213,0.586661,0.809833,443.411,440.859)"
         fill="#91d7ff"
         id="rect627"
         x="0"
         y="0" />
      <rect
         width="7.3689198"
         height="7.4257498"
         transform="matrix(0.79454,-0.607211,0.586662,0.809832,673.835,596.18)"
         fill="#b0b1c1"
         id="rect629"
         x="0"
         y="0" />
      <ellipse
         rx="2.2146399"
         ry="2.1568699"
         transform="matrix(0.0743587,0.997232,-0.99692,0.0784198,542.223,615.54)"
         fill="#d1efff"
         id="ellipse631"
         cx="0"
         cy="0" />
      <path
         d="m 490.679,632.926 -7.862,-2.145 -6.703,4.733 2.089,-8.074 -4.609,-6.885 7.862,2.145 6.703,-4.733 -2.089,8.075 z"
         fill="#7fbddf"
         id="path633" />
      <path
         d="m 570.595,678.902 -4.835,-1.319 -4.122,2.911 1.284,-4.966 -2.834,-4.234 4.835,1.32 4.122,-2.911 -1.284,4.965 z"
         fill="#f1fbff"
         id="path635" />
      <path
         d="m 468.696,582.799 -4.876,1.149 -2.324,4.55 -1.119,-5.007 -4.43,-2.388 4.876,-1.149 2.324,-4.55 1.119,5.008 z"
         fill="#f1fbff"
         id="path637" />
      <ellipse
         rx="6.3687501"
         ry="6.29493"
         transform="matrix(-0.520859,-0.853643,0.840861,-0.541251,124.981,374.145)"
         fill="#88a6b3"
         id="ellipse639"
         cx="0"
         cy="0" />
      <path
         d="m 184.061,348.833 4.026,3.969 5.553,-0.555 -3.864,4.135 0.54,5.704 -4.025,-3.969 -5.554,0.554 3.864,-4.134 z"
         fill="#8bb4cb"
         id="path641" />
      <ellipse
         rx="3.0165901"
         ry="3.0734401"
         transform="matrix(0.917671,-0.397341,0.379701,0.925109,221.143,393.269)"
         fill="#d1efff"
         id="ellipse643"
         cx="0"
         cy="0" />
      <rect
         width="7.3449602"
         height="7.44943"
         transform="matrix(-0.868504,-0.495682,0.475832,-0.879536,154.515,546.181)"
         fill="#91d7ff"
         id="rect645"
         x="0"
         y="0" />
      <rect
         width="7.3449702"
         height="7.44944"
         transform="matrix(-0.868504,-0.495681,0.475833,-0.879536,197.57,266.572)"
         fill="#b0b1c1"
         id="rect647"
         x="0"
         y="0" />
      <rect
         width="7.47332"
         height="7.3206902"
         transform="matrix(0.330059,0.94396,-0.938207,0.346074,352.184,773.466)"
         fill="#8cbde1"
         id="rect649"
         x="0"
         y="0" />
      <path
         d="m 696.46,90.4046 -2.421,4.4961 1.747,4.8148 -4.378,-2.4872 -4.687,1.7941 2.421,-4.496 -1.747,-4.8148 4.378,2.4872 z"
         fill="#f1fbff"
         id="path651" />
      <path
         d="m 580.924,168.556 -0.1,5.137 3.732,3.422 -5.001,-0.102 -3.332,3.833 0.1,-5.138 -3.732,-3.421 5.002,0.102 z"
         fill="#f1fbff"
         id="path653" />
      <path
         d="m 470.284,538.648 -4.868,-6.693 -8.116,-0.561 6.517,-5 0.546,-8.336 4.869,6.693 8.116,0.561 -6.517,5.001 z"
         fill="#7fbddf"
         id="path655" />
      <path
         d="m 505.168,625.641 -2.994,-4.116 -4.991,-0.345 4.008,-3.076 0.336,-5.126 2.994,4.116 4.991,0.345 -4.008,3.076 z"
         fill="#f1fbff"
         id="path657" />
      <path
         d="m 483.337,485.33 -4.518,-2.207 -4.572,2.086 2.149,-4.64 -2.031,-4.695 4.517,2.206 4.572,-2.086 -2.148,4.64 z"
         fill="#f1fbff"
         id="path659" />
      <ellipse
         rx="6.4122701"
         ry="6.2505898"
         transform="matrix(-0.146183,0.989258,-0.988066,-0.154029,452.893,596.431)"
         fill="#88a6b3"
         id="ellipse661"
         cx="0"
         cy="0" />
      <path
         d="m 392.034,576.044 -0.531,-5.705 -4.562,-3.3 5.555,-0.546 3.213,-4.686 0.53,5.706 4.563,3.3 -5.555,0.545 z"
         fill="#8bb4cb"
         id="path663" />
      <ellipse
         rx="3.0118999"
         ry="3.0780201"
         transform="matrix(-0.949432,-0.313974,0.299123,-0.954215,392.139,517.519)"
         fill="#d1efff"
         id="ellipse665"
         cx="0"
         cy="0" />
      <rect
         width="7.47224"
         height="7.3217702"
         transform="matrix(0.337797,0.941219,-0.935214,0.354082,539.741,446.23)"
         fill="#91d7ff"
         id="rect667"
         x="0"
         y="0" />
      <rect
         width="7.47225"
         height="7.3217502"
         transform="matrix(0.337795,0.94122,-0.935214,0.354084,329.561,629.354)"
         fill="#b0b1c1"
         id="rect669"
         x="0"
         y="0" />
      <ellipse
         rx="2.1591001"
         ry="2.2124701"
         transform="matrix(-0.976846,-0.213943,0.203271,-0.979123,348.676,494.214)"
         fill="#d1efff"
         id="ellipse671"
         cx="0"
         cy="0" />
      <path
         d="m 347.006,438.518 4.225,-7.139 -2.526,-7.942 6.951,4.34 7.732,-2.595 -4.225,7.14 2.526,7.941 -6.951,-4.339 z"
         fill="#7fbddf"
         id="path673" />
      <path
         d="m 281.482,504.26 2.599,-4.391 -1.554,-4.884 4.275,2.669 4.755,-1.596 -2.598,4.391 1.553,4.884 -4.274,-2.669 z"
         fill="#f1fbff"
         id="path675" />
      <path
         d="m 400.034,431.027 0.304,-5.129 -3.592,-3.576 4.993,0.313 3.481,-3.69 -0.304,5.129 3.593,3.576 -4.994,-0.313 z"
         fill="#f1fbff"
         id="path677" />
      <ellipse
         rx="6.2592001"
         ry="6.4038501"
         transform="matrix(0.960965,-0.27667,0.263284,0.964719,692.04,151.357)"
         fill="#88a6b3"
         id="ellipse679"
         cx="0"
         cy="0" />
      <path
         d="m 698.983,216.719 -4.845,2.844 -1.052,5.629 -2.768,-4.976 -5.481,-1.08 4.845,-2.844 1.052,-5.629 2.769,4.976 z"
         fill="#8bb4cb"
         id="path681" />
      <ellipse
         rx="3.0845699"
         ry="3.0052199"
         transform="matrix(0.109271,0.994012,-0.993343,0.115196,647.002,240.694)"
         fill="#d1efff"
         id="ellipse683"
         cx="0"
         cy="0" />
      <rect
         width="7.39574"
         height="7.3990202"
         transform="matrix(0.703519,-0.710677,0.691615,0.722267,523.025,131.835)"
         fill="#91d7ff"
         id="rect685"
         x="0"
         y="0" />
      <rect
         width="7.39574"
         height="7.3990302"
         transform="matrix(0.703519,-0.710677,0.691614,0.722267,771.99,253.277)"
         fill="#b0b1c1"
         id="rect687"
         x="0"
         y="0" />
      <rect
         width="7.2985001"
         height="7.4949598"
         transform="matrix(-0.99821,0.0598029,-0.0566985,-0.998391,254.894,262.349)"
         fill="#8cbde1"
         id="rect689"
         x="0"
         y="0" />
      <path
         d="m 278.958,275.98 3.445,1.061 3.027,-1.996 -1.033,3.539 1.943,3.109 -3.445,-1.061 -3.027,1.995 1.033,-3.538 z"
         fill="#f1fbff"
         id="path691" />
      <path
         d="m 350.057,347.421 3.529,-0.712 1.771,-3.216 0.694,3.625 3.13,1.819 -3.529,0.712 -1.771,3.216 -0.693,-3.625 z"
         fill="#f1fbff"
         id="path693" />
      <path
         d="m 620.107,370.758 -3.835,4.535 0.855,5.943 -4.415,-3.94 -5.786,0.879 3.835,-4.535 -0.855,-5.943 4.415,3.94 z"
         fill="#7fbddf"
         id="path695" />
      <path
         d="m 674.288,332.304 -2.359,2.789 0.526,3.654 -2.715,-2.423 -3.558,0.541 2.358,-2.789 -0.526,-3.655 2.716,2.423 z"
         fill="#f1fbff"
         id="path697" />
      <path
         d="m 581.642,369.479 -0.82,3.598 2.125,2.98 -3.502,-0.842 -2.902,2.183 0.82,-3.597 -2.125,-2.981 3.502,0.842 z"
         fill="#f1fbff"
         id="path699" />
      <ellipse
         rx="4.4917598"
         ry="4.6125102"
         transform="matrix(0.997884,-0.0650208,0.0616476,0.998098,662.288,374.485)"
         fill="#88a6b3"
         id="ellipse701"
         cx="0"
         cy="0" />
      <path
         d="m 657.635,421.516 -3.822,1.255 -1.561,3.796 -1.221,-3.926 -3.696,-1.603 3.822,-1.254 1.561,-3.796 1.221,3.925 z"
         fill="#8bb4cb"
         id="path703" />
      <ellipse
         rx="2.2179301"
         ry="2.1605"
         transform="matrix(-0.09481,0.995495,-0.994991,-0.0999684,617.584,430.376)"
         fill="#d1efff"
         id="ellipse705"
         cx="0"
         cy="0" />
      <rect
         width="5.2884202"
         height="5.3485398"
         transform="matrix(0.836829,-0.547464,0.527026,0.849849,546.285,334.747)"
         fill="#91d7ff"
         id="rect707"
         x="0"
         y="0" />
      <rect
         width="5.2884202"
         height="5.3485398"
         transform="matrix(0.836829,-0.547464,0.527026,0.849849,703.639,458.458)"
         fill="#b0b1c1"
         id="rect709"
         x="0"
         y="0" />
      <ellipse
         rx="1.59252"
         ry="1.5505199"
         transform="matrix(0.00379056,0.999993,-0.999992,0.00399871,608.279,465.297)"
         fill="#d1efff"
         id="ellipse711"
         cx="0"
         cy="0" />
      <path
         d="m 570.435,475.006 -5.529,-1.959 -5.047,3.036 1.908,-5.679 -2.956,-5.183 5.529,1.959 5.047,-3.036 -1.908,5.679 z"
         fill="#7fbddf"
         id="path713" />
      <path
         d="m 625.41,512.252 -3.4,-1.204 -3.104,1.866 1.173,-3.492 -1.818,-3.188 3.4,1.205 3.104,-1.867 -1.173,3.493 z"
         fill="#f1fbff"
         id="path715" />
      <path
         d="m 557.215,437.883 -3.555,0.564 -1.897,3.138 -0.549,-3.651 -3.055,-1.949 3.554,-0.563 1.898,-3.139 0.548,3.651 z"
         fill="#f1fbff"
         id="path717" />
      <ellipse
         rx="4.5865798"
         ry="4.51823"
         transform="matrix(-0.458491,-0.888699,0.878338,-0.478041,321.326,269.864)"
         fill="#88a6b3"
         id="ellipse719"
         cx="0"
         cy="0" />
      <path
         d="m 364.977,254.875 2.685,3.062 4.011,-0.101 -2.981,2.758 0.098,4.119 -2.685,-3.061 -4.011,0.1 2.981,-2.758 z"
         fill="#8bb4cb"
         id="path721" />
      <ellipse
         rx="2.1660299"
         ry="2.2125199"
         transform="matrix(0.944536,-0.328409,0.313026,0.949745,389.314,288.725)"
         fill="#d1efff"
         id="ellipse723"
         cx="0"
         cy="0" />
      <rect
         width="5.2900701"
         height="5.34692"
         transform="matrix(-0.829799,-0.558062,0.537559,-0.843226,333.777,394.809)"
         fill="#91d7ff"
         id="rect725"
         x="0"
         y="0" />
      <rect
         width="5.29005"
         height="5.34692"
         transform="matrix(-0.829798,-0.558064,0.537557,-0.843228,378.838,196.609)"
         fill="#b0b1c1"
         id="rect727"
         x="0"
         y="0" />
      <rect
         width="5.3790398"
         height="5.25741"
         transform="matrix(0.262292,0.964989,-0.961263,0.275633,463.991,568.373)"
         fill="#8cbde1"
         id="rect729"
         x="0"
         y="0" />
    </g>
    <g
       opacity="0.5"
       id="g861">
      <path
         d="m 1171.9,160.659 3.43,1.634 3.44,-1.614 -1.59,3.526 1.58,3.536 -3.44,-1.633 -3.44,1.614 1.59,-3.527 z"
         fill="#abebff"
         id="path733" />
      <ellipse
         rx="2.9414599"
         ry="2.95012"
         transform="matrix(0.736051,-0.676927,0.657136,0.753772,1195.95,175.586)"
         fill="#d1efff"
         id="ellipse735"
         cx="0"
         cy="0" />
      <path
         d="m 1226.21,172.687 -1.45,2.209 0.68,2.571 -2.15,-1.493 -2.5,0.704 1.45,-2.209 -0.68,-2.571 2.15,1.493 z"
         fill="#88accd"
         id="path737" />
      <ellipse
         rx="1.42458"
         ry="1.40873"
         transform="matrix(0.528931,0.848665,-0.835574,0.549378,1209.3,193.656)"
         fill="#d1efff"
         id="ellipse739"
         cx="0"
         cy="0" />
      <path
         d="m 1185.07,219.819 -5.13,1.252 -2.42,4.814 -1.22,-5.268 -4.68,-2.479 5.13,-1.252 2.41,-4.814 1.22,5.268 z"
         fill="#7fbddf"
         id="path741" />
      <path
         d="m 1244.42,220.892 -3.15,0.77 -1.49,2.96 -0.75,-3.24 -2.88,-1.524 3.15,-0.77 1.49,-2.96 0.75,3.239 z"
         fill="#b0e0ef"
         id="path743" />
      <ellipse
         rx="4.0794902"
         ry="4.1275401"
         transform="matrix(0.841354,0.540484,-0.520088,0.854113,1214.05,245.312)"
         fill="#a4d5e4"
         id="ellipse745"
         cx="0"
         cy="0" />
      <path
         d="m 1186.59,277.247 -3.44,-1.144 -3.09,1.938 1.11,-3.534 -1.88,-3.168 3.44,1.143 3.08,-1.938 -1.11,3.534 z"
         fill="#8bb4cb"
         id="path747" />
      <ellipse
         rx="1.97692"
         ry="1.97001"
         transform="matrix(-0.649198,0.760619,-0.743123,-0.669155,1152.72,262.124)"
         fill="#d1efff"
         id="ellipse749"
         cx="0"
         cy="0" />
      <rect
         width="4.7300401"
         height="4.8573899"
         transform="matrix(0.998398,0.0565815,-0.0536448,0.99856,1149.42,153.605)"
         fill="#7acbed"
         id="rect751"
         x="0"
         y="0" />
      <rect
         width="4.7298102"
         height="4.8573999"
         transform="matrix(0.998398,0.0565845,-0.053642,0.99856,1148.14,292.343)"
         fill="#7bf6f6"
         id="rect753"
         x="0"
         y="0" />
      <rect
         width="4.7299199"
         height="4.8573999"
         transform="matrix(0.998398,0.0565831,-0.0536433,0.99856,1224.31,266.36)"
         fill="#7481b0"
         id="rect755"
         x="0"
         y="0" />
      <path
         d="m 1358.38,215.138 -0.13,3.884 2.79,2.629 -3.78,-0.132 -2.56,2.864 0.13,-3.885 -2.79,-2.629 3.78,0.132 z"
         fill="#abebff"
         id="path757" />
      <ellipse
         rx="2.92063"
         ry="2.9707301"
         transform="matrix(0.900006,0.435877,-0.417222,0.908805,1354.36,243.701)"
         fill="#7898ef"
         id="ellipse759"
         cx="0"
         cy="0" />
      <path
         d="m 1368.74,271.202 -2.55,-0.516 -2.04,1.651 0.51,-2.616 -1.61,-2.095 2.55,0.516 2.04,-1.65 -0.51,2.616 z"
         fill="#88accd"
         id="path761" />
      <ellipse
         rx="1.42347"
         ry="1.40985"
         transform="matrix(-0.555578,0.831464,-0.817343,-0.576152,1343.35,263.369)"
         fill="#d1efff"
         id="ellipse763"
         cx="0"
         cy="0" />
      <path
         d="m 1310.45,250.628 -3.12,-4.365 -5.25,-0.409 4.25,-3.204 0.39,-5.399 3.12,4.364 5.26,0.409 -4.25,3.204 z"
         fill="#7fbddf"
         id="path765" />
      <path
         d="m 1332.6,307.198 -1.92,-2.684 -3.23,-0.252 2.61,-1.97 0.25,-3.321 1.91,2.685 3.24,0.251 -2.62,1.971 z"
         fill="#f1fbff"
         id="path767" />
      <path
         d="m 1319.19,216.147 -2.91,-1.455 -2.98,1.326 1.42,-2.995 -1.29,-3.054 2.91,1.455 2.98,-1.327 -1.42,2.996 z"
         fill="#f1fbff"
         id="path769" />
      <ellipse
         rx="4.1553998"
         ry="4.0511599"
         transform="matrix(-0.154257,0.988031,-0.986706,-0.162516,1298.88,287.977)"
         fill="#98ecff"
         id="ellipse771"
         cx="0"
         cy="0" />
      <path
         d="m 1259.54,274.425 -0.31,-3.7 -2.94,-2.164 3.6,-0.323 2.11,-3.019 0.31,3.701 2.94,2.164 -3.6,0.322 z"
         fill="#8bb4cb"
         id="path773" />
      <ellipse
         rx="1.95222"
         ry="1.99455"
         transform="matrix(-0.946709,-0.322091,0.306936,-0.95173,1259.92,236.499)"
         fill="#d1efff"
         id="ellipse775"
         cx="0"
         cy="0" />
      <rect
         width="4.8432999"
         height="4.7444"
         transform="matrix(0.330059,0.94396,-0.938208,0.346073,1355.95,191.123)"
         fill="#4793bd"
         id="rect777"
         x="0"
         y="0" />
      <rect
         width="4.8432999"
         height="4.7444801"
         transform="matrix(0.330066,0.943958,-0.93821,0.346066,1218.78,308.626)"
         fill="#b0b1c1"
         id="rect779"
         x="0"
         y="0" />
      <path
         d="m 1118.15,244.894 -0.37,-2.64 -2.19,-1.434 2.57,-0.375 1.4,-2.248 0.37,2.64 2.18,1.433 -2.57,0.375 z"
         fill="#88accd"
         id="path781" />
      <ellipse
         rx="1.4003"
         ry="1.43291"
         transform="matrix(-0.963099,-0.269146,0.256087,-0.966654,1116.98,217.693)"
         fill="#d1efff"
         id="ellipse783"
         cx="0"
         cy="0" />
      <path
         d="m 1117.85,181.591 2.99,-4.464 -1.36,-5.232 4.35,3.065 5.09,-1.393 -2.98,4.463 1.35,5.233 -4.34,-3.066 z"
         fill="#7fbddf"
         id="path785" />
      <path
         d="m 1073.15,221.709 1.84,-2.745 -0.84,-3.218 2.67,1.885 3.14,-0.857 -1.84,2.745 0.84,3.218 -2.68,-1.885 z"
         fill="#f1fbff"
         id="path787" />
      <path
         d="m 1152.43,178.704 0.38,-3.307 -2.2,-2.447 3.22,0.387 2.38,-2.259 -0.38,3.307 2.2,2.447 -3.22,-0.387 z"
         fill="#f1fbff"
         id="path789" />
      <ellipse
         rx="4.0518098"
         ry="4.1547599"
         transform="matrix(-0.983574,0.180505,-0.171387,-0.985204,1079.71,182.673)"
         fill="#88a6b3"
         id="ellipse791"
         cx="0"
         cy="0" />
      <path
         d="m 1079.2,140.065 3.3,-1.524 1.02,-3.563 1.48,3.387 3.47,1.049 -3.3,1.524 -1.02,3.563 -1.48,-3.388 z"
         fill="#8bb4cb"
         id="path793" />
      <ellipse
         rx="1.9997"
         ry="1.9469399"
         transform="matrix(-0.0155243,-0.999879,0.999866,-0.0163773,1114.19,127.933)"
         fill="#d1efff"
         id="ellipse795"
         cx="0"
         cy="0" />
      <rect
         width="4.7807102"
         height="4.8073902"
         transform="matrix(-0.768872,0.639403,-0.619067,-0.785338,1187.55,206.105)"
         fill="#91d7ff"
         id="rect797"
         x="0"
         y="0" />
      <rect
         width="4.7807698"
         height="4.8074298"
         transform="matrix(-0.768877,0.639396,-0.619074,-0.785333,1034.33,111.802)"
         fill="#b0b1c1"
         id="rect799"
         x="0"
         y="0" />
      <ellipse
         rx="1.43498"
         ry="1.3982"
         transform="matrix(-0.114036,-0.993477,0.992749,-0.120203,1119.05,95.6818)"
         fill="#d1efff"
         id="ellipse801"
         cx="0"
         cy="0" />
      <path
         d="m 1151.98,83.0199 5.15,1.1751 4.22,-3.2476 -1.15,5.2856 3.16,4.3326 -5.14,-1.1751 -4.22,3.2476 1.14,-5.2856 z"
         fill="#7fbddf"
         id="path803" />
      <path
         d="m 1099.05,55.4246 3.16,0.7226 2.6,-1.9972 -0.71,3.2506 1.95,2.6645 -3.17,-0.7226 -2.59,1.9972 0.7,-3.2506 z"
         fill="#f1fbff"
         id="path805" />
      <path
         d="m 1167.51,114.881 3.13,-0.877 1.38,-3.009 0.86,3.212 2.93,1.425 -3.13,0.877 -1.39,3.01 -0.85,-3.212 z"
         fill="#f1fbff"
         id="path807" />
      <path
         d="m 1411.78,117.74 -3.16,4.334 1.14,5.285 -4.22,-3.245 -5.14,1.178 3.16,-4.335 -1.15,-5.285 4.22,3.246 z"
         fill="#7fbddf"
         id="path809" />
      <path
         d="m 1377.11,119.172 -0.51,3.288 2.1,2.537 -3.2,-0.522 -2.47,2.157 0.51,-3.288 -2.1,-2.537 3.2,0.521 z"
         fill="#f1fbff"
         id="path811" />
      <rect
         width="4.7756801"
         height="4.8125"
         transform="matrix(0.794542,-0.607209,0.586665,0.80983,1343.12,90.3185)"
         fill="#91d7ff"
         id="rect813"
         x="0"
         y="0" />
      <ellipse
         rx="1.43527"
         ry="1.39788"
         transform="matrix(0.0743617,0.997231,-0.996921,0.0784167,1407.15,203.526)"
         fill="#d1efff"
         id="ellipse815"
         cx="0"
         cy="0" />
      <path
         d="m 1373.75,214.794 -5.09,-1.39 -4.35,3.067 1.35,-5.233 -2.98,-4.462 5.09,1.391 4.35,-3.068 -1.36,5.233 z"
         fill="#7fbddf"
         id="path817" />
      <path
         d="m 1359.5,182.307 -3.16,0.745 -1.5,2.949 -0.73,-3.245 -2.87,-1.547 3.16,-0.745 1.51,-2.949 0.72,3.245 z"
         fill="#f1fbff"
         id="path819" />
      <ellipse
         rx="4.12747"
         ry="4.0796399"
         transform="matrix(-0.520862,-0.853641,0.840863,-0.541248,1136.75,47.0826)"
         fill="#88a6b3"
         id="ellipse821"
         cx="0"
         cy="0" />
      <path
         d="m 1175.04,30.6781 2.61,2.5725 3.6,-0.3594 -2.51,2.6794 0.35,3.6969 -2.61,-2.5725 -3.6,0.3594 2.51,-2.6793 z"
         fill="#8bb4cb"
         id="path823" />
      <ellipse
         rx="1.955"
         ry="1.99184"
         transform="matrix(0.917671,-0.39734,0.379702,0.925109,1199.07,59.4768)"
         fill="#d1efff"
         id="ellipse825"
         cx="0"
         cy="0" />
      <rect
         width="4.76018"
         height="4.8278499"
         transform="matrix(-0.868507,-0.495676,0.475838,-0.879533,1155.89,158.576)"
         fill="#91d7ff"
         id="rect827"
         x="0"
         y="0" />
      <rect
         width="4.8432899"
         height="4.74439"
         transform="matrix(0.33006,0.94396,-0.938208,0.346072,1283.99,305.875)"
         fill="#8cbde1"
         id="rect829"
         x="0"
         y="0" />
      <path
         d="m 1360.53,153.694 -3.15,-4.338 -5.26,-0.363 4.22,-3.241 0.36,-5.402 3.15,4.338 5.26,0.363 -4.22,3.241 z"
         fill="#7fbddf"
         id="path831" />
      <path
         d="m 1383.14,210.073 -1.94,-2.668 -3.23,-0.224 2.59,-1.993 0.22,-3.322 1.94,2.668 3.24,0.223 -2.6,1.993 z"
         fill="#f1fbff"
         id="path833" />
      <path
         d="m 1368.99,119.139 -2.93,-1.43 -2.96,1.352 1.39,-3.007 -1.31,-3.043 2.93,1.43 2.96,-1.352 -1.39,3.007 z"
         fill="#f1fbff"
         id="path835" />
      <ellipse
         rx="4.1556702"
         ry="4.0508499"
         transform="matrix(-0.146181,0.989258,-0.988066,-0.15403,1349.26,191.142)"
         fill="#88a6b3"
         id="ellipse837"
         cx="0"
         cy="0" />
      <path
         d="m 1309.82,177.93 -0.34,-3.698 -2.96,-2.139 3.6,-0.353 2.08,-3.037 0.35,3.698 2.95,2.138 -3.6,0.354 z"
         fill="#8bb4cb"
         id="path839" />
      <ellipse
         rx="1.95201"
         ry="1.99482"
         transform="matrix(-0.949434,-0.313967,0.29913,-0.954212,1309.89,140.001)"
         fill="#d1efff"
         id="ellipse841"
         cx="0"
         cy="0" />
      <rect
         width="4.8426299"
         height="4.7451701"
         transform="matrix(0.337802,0.941217,-0.935216,0.354077,1405.55,93.7996)"
         fill="#91d7ff"
         id="rect843"
         x="0"
         y="0" />
      <rect
         width="4.8426299"
         height="4.7451701"
         transform="matrix(0.337801,0.941218,-0.935216,0.354077,1269.33,212.479)"
         fill="#b0b1c1"
         id="rect845"
         x="0"
         y="0" />
      <ellipse
         rx="1.39926"
         ry="1.4338599"
         transform="matrix(-0.976846,-0.213944,0.203269,-0.979123,1281.72,124.897)"
         fill="#d1efff"
         id="ellipse847"
         cx="0"
         cy="0" />
      <path
         d="m 1280.64,88.8017 2.74,-4.6268 -1.64,-5.1469 4.5,2.8125 5.02,-1.6815 -2.74,4.6268 1.63,5.1469 -4.5,-2.8126 z"
         fill="#7fbddf"
         id="path849" />
      <path
         d="m 1238.17,131.408 1.69,-2.846 -1.01,-3.165 2.77,1.73 3.08,-1.034 -1.68,2.845 1.01,3.165 -2.77,-1.729 z"
         fill="#f1fbff"
         id="path851" />
      <path
         d="m 1315,83.9466 0.2,-3.3237 -2.33,-2.3174 3.24,0.2026 2.26,-2.3913 -0.2,3.3238 2.33,2.3173 -3.24,-0.2026 z"
         fill="#f1fbff"
         id="path853" />
      <path
         d="m 1282.62,29.7632 2.28,-0.4616 1.15,-2.0839 0.45,2.3493 2.03,1.1788 -2.29,0.4616 -1.15,2.0838 -0.45,-2.3492 z"
         fill="#f1fbff"
         id="path855" />
      <rect
         width="3.42839"
         height="3.46524"
         transform="matrix(-0.829799,-0.558063,0.537558,-0.843227,1272.06,60.4744)"
         fill="#91d7ff"
         id="rect857"
         x="0"
         y="0" />
      <rect
         width="3.4860699"
         height="3.4073"
         transform="matrix(0.262296,0.964987,-0.961264,0.275628,1356.45,172.958)"
         fill="#8cbde1"
         id="rect859"
         x="0"
         y="0" />
    </g>
    <circle
       cx="978"
       cy="355"
       r="173.5"
       stroke="#ffffff"
       stroke-opacity="0.2"
       stroke-width="3"
       stroke-dasharray="4, 4"
       id="circle863" />
    <circle
       cx="768"
       cy="127"
       r="241.5"
       stroke="#ffffff"
       stroke-opacity="0.2"
       stroke-width="3"
       stroke-dasharray="4, 4"
       id="circle865" />
    <circle
       cx="793"
       cy="391"
       r="123.5"
       stroke="#ffffff"
       stroke-opacity="0.2"
       stroke-width="3"
       stroke-dasharray="4, 4"
       id="circle867" />
    <circle
       cx="298.5"
       cy="665.5"
       r="340"
       stroke="#ffffff"
       stroke-opacity="0.2"
       stroke-width="5"
       stroke-dasharray="4, 4"
       id="circle869" />
    <path
       d="m 744.135,638.635 65.385,113.25 H 678.75 Z"
       fill="#ffffff"
       fill-opacity="0.1"
       id="path871" />
    <path
       d="m 703,769 -58.5,33.775 v -67.55 z"
       fill="#ffffff"
       fill-opacity="0.1"
       id="path873" />
    <path
       d="M 870.885,796.52 757.635,731.135 870.885,665.75 Z"
       fill="#ffffff"
       fill-opacity="0.1"
       id="path875" />
    <path
       d="M 902.602,674.797 1015.33,879.731 781.486,874.886 Z"
       fill="#ffffff"
       fill-opacity="0.05"
       id="path877" />
    <path
       d="M 1235.86,882.797 934.639,788.215 1167.16,574.643 Z"
       fill="#ffffff"
       fill-opacity="0.05"
       id="path879" />
    <path
       d="m 1193.32,902.121 48.69,-166.751 120.06,125.542 z"
       fill="#ffffff"
       fill-opacity="0.05"
       id="path881" />
    <path
       d="M 1283.09,855.196 H 1151.1 l 65.99,-114.304 z"
       fill="#ffffff"
       fill-opacity="0.05"
       id="path883" />
    <path
       d="M 1149.67,874.039 835.391,843.878 1018.65,586.788 Z"
       fill="#ffffff"
       fill-opacity="0.05"
       id="path885" />
  </g>
  <defs
     id="defs994">
    <filter
       id="filter0_d"
       x="0"
       y="0"
       width="1410"
       height="908"
       filterUnits="userSpaceOnUse"
       color-interpolation-filters="sRGB">
      <feFlood
         flood-opacity="0"
         result="BackgroundImageFix"
         id="feFlood889" />
      <feColorMatrix
         in="SourceAlpha"
         type="matrix"
         values="0 0 0 0 0 0 0 0 0 0 0 0 0 0 0 0 0 0 127 0"
         result="hardAlpha"
         id="feColorMatrix891" />
      <feOffset
         dy="4"
         id="feOffset893" />
      <feGaussianBlur
         stdDeviation="2"
         id="feGaussianBlur895" />
      <feComposite
         in2="hardAlpha"
         operator="out"
         id="feComposite897" />
      <feColorMatrix
         type="matrix"
         values="0 0 0 0 0 0 0 0 0 0 0 0 0 0 0 0 0 0 0.25 0"
         id="feColorMatrix899" />
      <feBlend
         mode="normal"
         in2="BackgroundImageFix"
         result="effect1_dropShadow"
         id="feBlend901" />
      <feBlend
         mode="normal"
         in="SourceGraphic"
         in2="effect1_dropShadow"
         result="shape"
         id="feBlend903" />
    </filter>
    <radialGradient
       id="paint0_radial"
       cx="0"
       cy="0"
       r="1"
       gradientUnits="userSpaceOnUse"
       gradientTransform="matrix(1125.494,-131.49987,215.95154,1848.3071,229.391,845.5)">
      <stop
         offset="0.0001"
         stop-color="#7BCAF6"
         id="stop906" />
      <stop
         offset="1"
         stop-color="#2D4AE1"
         id="stop908" />
    </radialGradient>
    <linearGradient
       id="paint1_linear"
       x1="1228.88"
       y1="80"
       x2="1228.88"
       y2="701.764"
       gradientUnits="userSpaceOnUse">
      <stop
         stop-color="#E6EBFD"
         id="stop911" />
      <stop
         offset="1"
         stop-color="#E6EBFD"
         stop-opacity="0"
         id="stop913" />
    </linearGradient>
    <linearGradient
       id="paint2_linear"
       x1="1394.69"
       y1="287.254"
       x2="1394.69"
       y2="577.411"
       gradientUnits="userSpaceOnUse">
      <stop
         stop-color="#B6C2EA"
         id="stop916" />
      <stop
         offset="1"
         stop-color="#DBE6FF"
         stop-opacity="0"
         id="stop918" />
    </linearGradient>
    <linearGradient
       id="paint3_linear"
       x1="1265.1"
       y1="297.138"
       x2="1310.56"
       y2="137.686"
       gradientUnits="userSpaceOnUse">
      <stop
         stop-color="#A3B0DC"
         id="stop921" />
      <stop
         offset="1"
         stop-color="#DBE6FF"
         stop-opacity="0"
         id="stop923" />
    </linearGradient>
    <radialGradient
       id="paint4_radial"
       cx="0"
       cy="0"
       r="1"
       gradientUnits="userSpaceOnUse"
       gradientTransform="matrix(972.97673,-441.62189,323.08193,711.81073,539.637,656.449)">
      <stop
         offset="0.0001"
         stop-color="#366EFF"
         id="stop926" />
      <stop
         offset="1"
         stop-color="#5887DF"
         id="stop928" />
    </radialGradient>
    <radialGradient
       id="paint5_radial"
       cx="0"
       cy="0"
       r="1"
       gradientUnits="userSpaceOnUse"
       gradientTransform="matrix(1443.0011,-583.04545,427.22725,1057.3608,134.42,716)">
      <stop
         offset="0.0001"
         stop-color="#9CC4FF"
         id="stop931" />
      <stop
         offset="1"
         stop-color="#00398D"
         id="stop933" />
    </radialGradient>
    <linearGradient
       id="paint6_linear"
       x1="706.46"
       y1="494"
       x2="706.46"
       y2="900"
       gradientUnits="userSpaceOnUse">
      <stop
         stop-color="white"
         stop-opacity="0"
         id="stop936" />
      <stop
         offset="1"
         stop-color="#6485D9"
         stop-opacity="0.86"
         id="stop938" />
    </linearGradient>
    <linearGradient
       id="paint7_linear"
       x1="661.439"
       y1="-4.38318"
       x2="582.979"
       y2="831.833"
       gradientUnits="userSpaceOnUse">
      <stop
         stop-color="#0B38DA"
         stop-opacity="0.6"
         id="stop941" />
      <stop
         offset="1"
         stop-color="#634CED"
         stop-opacity="0"
         id="stop943" />
    </linearGradient>
    <linearGradient
       id="paint8_linear"
       x1="400.9"
       y1="181.866"
       x2="397.271"
       y2="798.38"
       gradientUnits="userSpaceOnUse">
      <stop
         stop-color="#90A7F9"
         id="stop946" />
      <stop
         offset="1"
         stop-color="#779DFF"
         stop-opacity="0"
         id="stop948" />
    </linearGradient>
    <radialGradient
       id="paint9_radial"
       cx="0"
       cy="0"
       r="1"
       gradientUnits="userSpaceOnUse"
       gradientTransform="matrix(245.1392,314.72515,-685.48199,533.92144,376.214,601.711)">
      <stop
         stop-color="#889EEC"
         id="stop951" />
      <stop
         offset="1"
         stop-color="#82BBFF"
         stop-opacity="0"
         id="stop953" />
    </radialGradient>
    <radialGradient
       id="paint10_radial"
       cx="0"
       cy="0"
       r="1"
       gradientUnits="userSpaceOnUse"
       gradientTransform="matrix(710.11906,261.25887,-493.51821,1341.4155,650.284,292.489)">
      <stop
         stop-color="#274AC7"
         stop-opacity="0.42"
         id="stop956" />
      <stop
         offset="1"
         stop-color="#3849E1"
         stop-opacity="0"
         id="stop958" />
    </radialGradient>
    <radialGradient
       id="paint11_radial"
       cx="0"
       cy="0"
       r="1"
       gradientUnits="userSpaceOnUse"
       gradientTransform="matrix(-1.2441112,211.39234,-508.3132,-2.9915849,945.909,158.44)">
      <stop
         stop-color="#7DB7FB"
         id="stop961" />
      <stop
         offset="1"
         stop-color="#AFB7FF"
         stop-opacity="0"
         id="stop963" />
    </radialGradient>
    <radialGradient
       id="paint12_radial"
       cx="0"
       cy="0"
       r="1"
       gradientUnits="userSpaceOnUse"
       gradientTransform="matrix(-0.6157996,104.63319,-474.05479,-2.7899633,1152.3,81.2681)">
      <stop
         stop-color="#7393E6"
         id="stop966" />
      <stop
         offset="1"
         stop-color="#739AE6"
         stop-opacity="0"
         id="stop968" />
    </radialGradient>
    <radialGradient
       id="paint13_radial"
       cx="0"
       cy="0"
       r="1"
       gradientUnits="userSpaceOnUse"
       gradientTransform="matrix(-38.581684,111.57468,-303.24398,-104.85948,1105.09,70.4512)">
      <stop
         stop-color="#8AAECF"
         id="stop971" />
      <stop
         offset="1"
         stop-color="#8A8DCF"
         stop-opacity="0"
         id="stop973" />
    </radialGradient>
    <radialGradient
       id="paint14_radial"
       cx="0"
       cy="0"
       r="1"
       gradientUnits="userSpaceOnUse"
       gradientTransform="matrix(-1.4318731,243.29579,-321.28144,-1.8908435,636.287,373.206)">
      <stop
         stop-color="#7A85E6"
         id="stop976" />
      <stop
         offset="1"
         stop-color="#7A92E6"
         stop-opacity="0"
         id="stop978" />
    </radialGradient>
    <linearGradient
       id="paint15_linear"
       x1="705"
       y1="639"
       x2="705"
       y2="900"
       gradientUnits="userSpaceOnUse">
      <stop
         stop-color="#5D7DD7"
         stop-opacity="0"
         id="stop981" />
      <stop
         offset="1"
         stop-color="#6FA0FF"
         id="stop983" />
    </linearGradient>
    <linearGradient
       id="paint16_linear"
       x1="707.921"
       y1="258"
       x2="707.921"
       y2="-2.99994"
       gradientUnits="userSpaceOnUse">
      <stop
         stop-color="#5D7DD7"
         stop-opacity="0"
         id="stop986" />
      <stop
         offset="1"
         stop-color="#6FA0FF"
         id="stop988" />
    </linearGradient>
    <clipPath
       id="clip0">
      <rect
         width="1402"
         height="900"
         fill="white"
         transform="translate(4)"
         id="rect991" />
    </clipPath>
  </defs>
</svg>
